<svg width="61" height="66" viewBox="0 0 61 66" fill="none" xmlns="http://www.w3.org/2000/svg">
<g filter="url(#filter0_d_1_4001)">
<path d="M6.22335 26.2588C7.28021 20.6222 7.80865 17.8039 9.81485 16.1389C11.821 14.4739 14.6885 14.4739 20.4233 14.4739H30.1533C35.8882 14.4739 38.7556 14.4739 40.7618 16.1389C42.768 17.8039 43.2964 20.6222 44.3533 26.2588L46.1592 35.8904C47.6454 43.8165 48.3884 47.7795 46.222 50.3899C44.0556 53.0003 40.0235 53.0003 31.9593 53.0003H18.6174C10.5532 53.0003 6.52107 53.0003 4.35464 50.3899C2.18822 47.7795 2.93129 43.8165 4.41742 35.8904L6.22335 26.2588Z" fill="url(#paint0_linear_1_4001)"/>
<path d="M19.8697 12.0296C19.8697 9.03743 22.2953 6.61181 25.2874 6.61181C28.2796 6.61181 30.7052 9.03743 30.7052 12.0296V14.4375C32.0681 14.4379 33.2621 14.4417 34.3167 14.4733C34.317 14.4614 34.3171 14.4495 34.3171 14.4375V12.0296C34.3171 7.04266 30.2744 2.99996 25.2874 2.99996C20.3005 2.99996 16.2578 7.04266 16.2578 12.0296V14.4375C16.2578 14.4495 16.2579 14.4614 16.2582 14.4734C17.3128 14.4417 18.5067 14.438 19.8697 14.4375V12.0296Z" fill="white"/>
<path d="M20.181 35.5427C20.9256 37.6494 22.9348 39.1544 25.291 39.1544C27.6471 39.1544 29.6563 37.6494 30.4009 35.5427C30.7333 34.6024 31.7651 34.1095 32.7054 34.4419C33.6458 34.7742 34.1387 35.806 33.8063 36.7464C32.5676 40.251 29.2253 42.7663 25.291 42.7663C21.3566 42.7663 18.0143 40.251 16.7756 36.7464C16.4432 35.806 16.9361 34.7742 17.8765 34.4419C18.8169 34.1095 19.8486 34.6024 20.181 35.5427Z" fill="white"/>
</g>
<defs>
<filter id="filter0_d_1_4001" x="0" y="0" width="60.5767" height="66.0002" filterUnits="userSpaceOnUse" color-interpolation-filters="sRGB">
<feFlood flood-opacity="0" result="BackgroundImageFix"/>
<feColorMatrix in="SourceAlpha" type="matrix" values="0 0 0 0 0 0 0 0 0 0 0 0 0 0 0 0 0 0 127 0" result="hardAlpha"/>
<feOffset dx="5" dy="5"/>
<feGaussianBlur stdDeviation="4"/>
<feComposite in2="hardAlpha" operator="out"/>
<feColorMatrix type="matrix" values="0 0 0 0 0.831373 0 0 0 0 0.929412 0 0 0 0 0.945098 0 0 0 1 0"/>
<feBlend mode="normal" in2="BackgroundImageFix" result="effect1_dropShadow_1_4001"/>
<feBlend mode="normal" in="SourceGraphic" in2="effect1_dropShadow_1_4001" result="shape"/>
</filter>
<linearGradient id="paint0_linear_1_4001" x1="40.8123" y1="16.438" x2="4.87499" y2="50.8128" gradientUnits="userSpaceOnUse">
<stop offset="0.0680483" stop-color="#6FBAFF"/>
<stop offset="0.620079" stop-color="#B1E3FF"/>
<stop offset="0.903389" stop-color="#F2FAFF"/>
</linearGradient>
</defs>
</svg>
