<svg width="34" height="53" viewBox="0 0 34 53" fill="none" xmlns="http://www.w3.org/2000/svg">
<path fill-rule="evenodd" clip-rule="evenodd" d="M12.4093 0.831496C12.2314 0.908745 11.95 1.09193 11.7839 1.23862C11.2221 1.73486 11.1695 2.00736 11.1695 4.42224V6.6359L11.474 7.08662C11.8235 7.60384 12.4646 8.16293 12.8794 8.31226C13.5987 8.57127 14.4939 8.37035 15.1932 7.79301C15.587 7.46789 15.5897 7.46029 15.5897 6.66621V5.86665L14.9967 5.49653C14.4296 5.14242 14.2824 4.93338 14.5076 4.80251C14.5647 4.76936 16.0444 5.57094 17.7958 6.58389L20.9801 8.4256V9.71287C20.9801 10.9884 20.9833 11.0044 21.3214 11.4845C22.009 12.4606 23.1573 13.053 24.125 12.931C24.3719 12.8998 24.8448 12.7441 25.1758 12.585L25.7777 12.2956L25.8067 9.99216C25.8335 7.85951 25.8197 7.65939 25.6204 7.29211C25.5021 7.07395 25.2707 6.80692 25.1063 6.69875C24.9419 6.59058 22.3386 5.21004 19.3214 3.6308C14.4318 1.07166 13.7754 0.755768 13.2841 0.725355C12.9649 0.705587 12.5964 0.750294 12.4093 0.831496ZM11.9241 12.302C11.9241 16.7174 11.8677 16.3792 12.6698 16.7617C13.1723 17.0012 13.9926 16.9261 14.3534 16.6074L14.6194 16.3724V12.527C14.6194 8.90369 14.6085 8.68583 14.4307 8.75629C14.3269 8.79734 13.9995 8.85158 13.703 8.87672C13.2601 8.91433 13.0533 8.86952 12.544 8.62571L11.9241 8.32898V12.302ZM10.3372 10.6751C10.0871 10.7487 8.17561 11.6439 6.08972 12.6644C2.99914 14.1767 2.18076 14.6215 1.66824 15.0677C0.961437 15.6829 0.453977 16.5401 0.281267 17.41C0.125913 18.1931 0.134322 39.8964 0.290323 40.69C0.499042 41.7513 1.13145 42.7197 2.01344 43.3285C2.58009 43.7197 19.3662 51.9556 20.3333 52.317C21.1243 52.6125 23.0168 52.633 23.8371 52.3549C24.1336 52.2544 26.0217 51.3673 28.033 50.3834C31.2717 48.7993 31.7659 48.5252 32.3538 47.9865C33.0862 47.3154 33.5299 46.5674 33.7001 45.7171C33.8562 44.937 33.8489 22.6289 33.6923 21.8247C33.5372 21.0291 33.0443 20.1786 32.3664 19.5371C31.8874 19.0839 31.3999 18.8242 28.6554 17.5595C26.9177 16.7588 25.4744 16.1036 25.4481 16.1036C25.4219 16.1036 25.4003 17.4218 25.4003 19.033V21.9625L25.011 22.2838C24.7969 22.4606 24.5027 22.6479 24.3572 22.6999C23.7564 22.9146 22.8393 22.7404 22.1093 22.2731L21.7363 22.0341L21.7356 18.2005L21.7348 14.367L18.4736 12.8703L15.2123 11.3738L15.1859 13.8654C15.1678 15.5834 15.1188 16.4305 15.0282 16.5936C14.8775 16.8648 14.1789 17.2705 13.7025 17.3635C13.2871 17.4445 12.4526 17.2083 11.9137 16.8572L11.4929 16.5829V13.5554V10.5279L11.1425 10.5347C10.9499 10.5385 10.5874 10.6016 10.3372 10.6751ZM22.166 17.3724V21.7836L22.5164 21.9862C23.0871 22.316 23.6311 22.418 24.0867 22.2805C24.9137 22.0309 24.8613 22.3489 24.8613 17.5832L24.8614 13.3158H23.9179C23.2312 13.3158 22.8748 13.2675 22.6076 13.1384C22.4058 13.0408 22.2239 12.961 22.2033 12.961C22.1829 12.961 22.166 14.9461 22.166 17.3724ZM15.8592 22.4656C17.8752 23.3893 19.7795 24.3019 20.0908 24.4935C21.1717 25.1586 22.012 26.3178 22.2716 27.5019C22.3465 27.8436 22.3748 31.3379 22.356 37.9488C22.3296 47.2263 22.3156 47.8845 22.1435 47.9157C21.9708 47.9469 21.9572 47.3088 21.9279 37.7794C21.8981 28.1361 21.8861 27.5836 21.695 27.103C21.3924 26.3418 20.7927 25.5553 20.1583 25.0877C19.7978 24.822 17.054 23.5077 12.6195 21.4766C8.78495 19.7202 5.6215 18.2216 5.58969 18.1463C5.41763 17.7382 5.99204 17.9356 8.99981 19.3181C10.7565 20.1254 13.8432 21.5419 15.8592 22.4656ZM6.51912 21.5049C7.23209 21.8707 8.09294 22.1618 8.42034 22.8408L8.44988 32.7661C8.4792 42.6217 8.4778 42.6946 8.25647 43.1247C7.98005 43.6616 7.45954 43.9257 6.81484 43.8561C6.22771 43.7927 3.67004 42.3349 3.38995 41.9039C3.20193 41.6145 3.19234 41.1171 3.19201 31.5967L3.19158 21.5935C3.60894 21.127 3.94732 20.7838 4.64841 20.7733C4.98963 20.7683 5.38529 20.9231 6.51912 21.5049ZM3.76125 21.6814C3.58045 22.0174 3.5591 41.2053 3.73915 41.577C3.80782 41.7186 4.41608 42.1449 5.22153 42.6159C6.7632 43.5173 7.16835 43.6105 7.65964 43.1765L7.9352 42.933L7.93175 32.9398C7.92894 24.8578 7.90134 22.9131 7.78696 22.7716C7.58083 22.5162 5.15533 21.2636 4.76452 21.2107C4.36369 21.1561 3.94706 21.3365 3.76125 21.6814ZM15.8544 25.5693C16.6227 25.9764 17.3504 26.4343 17.4716 26.587C17.69 26.862 17.6919 26.951 17.6919 36.923C17.6919 46.4473 17.6816 46.9964 17.4975 47.2608C17.2271 47.6487 16.6865 47.935 16.2234 47.9354C15.7073 47.9359 12.9626 46.4116 12.6644 45.959C12.4727 45.6679 12.4639 45.223 12.4636 35.632L12.4632 25.6092C12.9011 25.1973 13.2126 24.8214 13.8789 24.8256C14.3949 24.8288 14.6091 24.9095 15.8544 25.5693ZM12.8944 25.8201V35.606C12.8944 42.4179 12.9299 45.4652 13.0113 45.6329C13.1307 45.8797 15.4919 47.3152 15.999 47.4495C16.3361 47.5387 16.9337 47.3137 17.0904 47.0386C17.2439 46.7689 17.2551 27.1238 17.1019 26.8546C17.0441 26.7531 16.3704 26.3456 15.6049 25.9488C14.5052 25.379 13.8095 24.9597 12.8944 25.8201Z" fill="#475569"/>
</svg>
