<svg width="44" height="46" viewBox="0 0 44 46" fill="none" xmlns="http://www.w3.org/2000/svg">
<path fill-rule="evenodd" clip-rule="evenodd" d="M15.7494 3.87828C16.2886 2.07246 17.7233 0.684675 19.5764 0.176757C20.8203 -0.164213 22.1913 -0.0081181 23.4047 0.612482C24.3035 1.07211 24.8796 1.59917 25.4307 2.4655C26.0263 3.40219 26.2798 4.21791 26.3647 5.47252L26.4348 6.50568L26.914 6.59153C27.1776 6.63872 27.9323 6.76531 28.5912 6.87299C31.6199 7.36762 32.2619 7.98297 31.1897 9.36368C30.0548 10.8251 29.0936 12.6014 27.5521 16.0856C25.6059 20.4845 24.4526 22.0015 22.261 23.0455C20.7971 23.7428 18.9334 23.9169 16.4914 23.5842C15.7666 23.4854 15.1532 23.4042 15.1283 23.4036C15.1034 23.4031 15.1183 23.1787 15.1613 22.9049C15.2686 22.2213 15.7392 21.0787 16.1989 20.3855C16.9886 19.1944 16.6988 18.3452 15.3728 17.9648C14.9998 17.8577 14.1844 17.6106 13.5611 17.4156C12.1316 16.9687 11.5398 16.9571 11.0615 17.367C10.6153 17.7489 9.71035 19.5191 9.36293 20.6892C9.18574 21.2856 9.04067 21.5734 8.91691 21.5734C8.81592 21.5734 8.21932 21.3171 7.59108 21.004C5.02161 19.7231 4.08153 17.9957 4.45004 15.232C4.63225 13.8646 5.01897 12.7284 6.00624 10.6589C6.87396 8.84027 7.89142 7.17847 8.96699 5.82349C9.48848 5.16643 9.79481 4.90741 10.4215 4.59339C11.1559 4.22547 11.3012 4.19633 12.3559 4.20486C12.9832 4.20998 13.9457 4.31047 14.4948 4.42839C15.0439 4.5462 15.505 4.62437 15.5192 4.60205C15.5336 4.57973 15.6372 4.25401 15.7494 3.87828ZM24.475 4.15035C24.0582 3.03366 23.0749 2.08429 22.0692 1.82758C20.4957 1.42588 19.2691 1.73393 18.2299 2.79171C17.5382 3.49585 16.9893 4.69485 17.3066 4.80827C17.4467 4.85839 24.4769 6.08581 24.6235 6.08581C24.7888 6.08581 24.683 4.70766 24.475 4.15035ZM28.4347 15.7116C28.6646 14.7292 29.2329 13.8072 30.1624 12.388C31.0919 10.9689 31.7574 9.36368 31.8106 9.36368C31.9194 9.36368 31.8612 12.0423 32.1206 13.1537C32.1645 13.3416 32.2139 13.5486 32.2672 13.7722C32.6492 15.3726 33.2329 17.8186 33.42 20.1202C33.4845 20.9131 33.6435 22.7144 33.7733 24.123C33.8773 25.2512 33.9799 26.3073 34.0762 27.2984C34.7754 34.497 35.1414 38.2662 33.3099 41.3517C32.7175 42.3498 30.2099 44.0969 29.2906 44.6613C28.5076 45.142 26.7367 45.8452 26.0116 45.9632C25.5862 46.0323 25.5149 46.013 25.5149 45.828C25.5149 45.7091 25.7831 43.356 26.1109 40.599C26.798 34.8216 27.0784 32.1575 27.4923 27.4766C27.8099 23.8854 27.9958 21.1433 28.1278 19.1969C28.2576 17.2815 28.3353 16.1367 28.4347 15.7116ZM34.3412 21.4903C34.0504 18.2584 33.0376 13.7762 32.7346 12.523C32.6695 12.2536 32.6831 12.2451 32.9509 12.388C35.2232 13.6007 38.6324 17.4371 40.4186 20.7728C42.6839 25.0033 44.5942 29.7558 43.7971 33.4942C42.8202 38.0768 40.7187 41.0514 37.5247 42.3725C36.3199 42.8709 33.6554 43.3538 33.3099 43.1364C33.2373 43.0908 33.3109 42.8787 33.4937 42.6065C34.1863 41.5753 34.8158 39.978 35.2332 38.1932C35.4566 37.2376 35.527 37.1037 36.1746 36.3989C36.9339 35.5726 37.5077 34.4787 37.7165 33.4596C38.2046 31.0764 37.1427 28.961 35.7924 26.271C35.6102 25.9081 35.4228 25.5347 35.2332 25.1488L34.5442 23.7464L34.3412 21.4903ZM25.05 21.8491C25.8039 21.1419 27.4934 17.4167 27.8387 16.6455C28.1529 15.9434 27.7638 19.7811 27.1461 26.6343C26.8075 30.39 26.1304 36.9814 26.0773 37.0373C26.0185 37.0993 22.3599 36.5874 20.5047 36.2574C14.449 35.1806 8.48659 33.4711 2.59457 31.1225L1.39657 30.6449L1.42029 30.2176C1.43335 29.9825 1.68613 29.0252 1.98191 28.0903C2.38331 26.8217 3.17958 23.836 3.72274 21.7993C4.03876 20.6144 4.2691 19.7507 4.28615 19.7333C4.30376 19.7153 4.61165 19.927 4.97009 20.2038C5.55208 20.6531 7.23624 21.5454 8.46718 22.0566C8.85833 22.219 8.91643 22.2951 8.91691 22.6457C8.91739 23.1553 9.37359 24.9251 9.80727 25.1488C9.9914 25.2437 10.917 25.5548 11.8641 25.8401C13.4155 26.3074 13.6318 26.345 14.0462 26.2186C14.5225 26.0733 14.8741 25.6976 14.8741 25.3339C14.8741 25.3198 14.874 25.3046 14.8739 25.2887C14.8717 24.9471 14.867 24.2143 15.755 24.2143C16.2037 24.2143 16.7319 24.2365 17.2784 24.2594C18.4301 24.3078 19.6627 24.3595 20.4025 24.2143C22.2902 23.8438 23.6994 23.1161 25.05 21.8491ZM3.58855 40.7165C1.92177 39.255 0.991404 36.7209 0.981461 33.6158C0.978825 32.7932 1.31894 31.1225 1.39657 31.1225C1.46462 31.1225 1.72063 31.2093 1.96562 31.3154C7.98714 33.9243 19.1457 36.963 25.1489 37.5019C25.6596 37.5478 26.0773 37.6138 26.0773 37.6486C26.0773 37.7189 25.208 44.569 25.1227 45.2119C25.0281 45.9248 24.9368 45.9632 23.3345 45.9632C21.0348 45.9632 19.3807 45.7333 14.4548 44.7294C9.46404 43.7123 5.21628 42.1435 3.58855 40.7165Z" fill="#475569"/>
</svg>
