<svg width="59" height="66" viewBox="0 0 59 66" fill="none" xmlns="http://www.w3.org/2000/svg">
<g filter="url(#filter0_d_1_4017)">
<path d="M26.5987 42.9999C36.9538 43.0862 45.5831 33.2 45.4995 22.5111C45.416 11.8222 36.9538 3.08714 26.5987 3.00089C16.2437 2.91463 7.91698 11.5098 8.00055 22.1987C8.08411 32.8877 16.2437 42.9137 26.5987 42.9999Z" fill="url(#paint0_linear_1_4017)"/>
<path fill-rule="evenodd" clip-rule="evenodd" d="M25.9737 12.9852C25.9821 11.9497 26.8283 11.1171 27.8638 11.1254C32.9965 11.1668 37.1822 15.3526 37.2236 20.4853C37.232 21.5208 36.3993 22.367 35.3638 22.3754C34.3283 22.3837 33.4821 21.5511 33.4737 20.5156C33.4488 17.4303 30.9188 14.9002 27.8335 14.8753C26.798 14.867 25.9653 14.0208 25.9737 12.9852Z" fill="white"/>
<path d="M29.5488 42.7527C28.5858 42.9227 27.6003 43.0077 26.5987 42.9993C25.6002 42.991 24.6221 42.8903 23.6697 42.7054L23.6246 42.8058C23.2438 43.4896 23.0533 43.8316 22.9709 44.0951C22.4883 45.6383 23.4822 47.2487 25.1154 47.5698C25.3942 47.6246 25.7957 47.6246 26.5987 47.6246C27.4015 47.6246 27.8031 47.6246 28.082 47.5698C29.7151 47.2487 30.709 45.6383 30.2264 44.0951C30.144 43.8316 29.9536 43.4897 29.5727 42.8058L29.5488 42.7527Z" fill="url(#paint1_linear_1_4017)"/>
<path d="M24.7241 47.4652C24.85 47.5086 24.9807 47.544 25.1158 47.5706C25.3947 47.6254 25.7962 47.6254 26.5991 47.6254C27.402 47.6254 27.8036 47.6254 28.0824 47.5706C28.2175 47.544 28.3483 47.5087 28.4741 47.4652V51.1255C28.4741 52.161 27.6347 53.0005 26.5991 53.0005C25.5636 53.0005 24.7241 52.161 24.7241 51.1255V47.4652Z" fill="url(#paint2_linear_1_4017)"/>
</g>
<defs>
<filter id="filter0_d_1_4017" x="-3" y="0.000244141" width="69.5" height="66.0002" filterUnits="userSpaceOnUse" color-interpolation-filters="sRGB">
<feFlood flood-opacity="0" result="BackgroundImageFix"/>
<feColorMatrix in="SourceAlpha" type="matrix" values="0 0 0 0 0 0 0 0 0 0 0 0 0 0 0 0 0 0 127 0" result="hardAlpha"/>
<feOffset dx="5" dy="5"/>
<feGaussianBlur stdDeviation="4"/>
<feComposite in2="hardAlpha" operator="out"/>
<feColorMatrix type="matrix" values="0 0 0 0 0.831373 0 0 0 0 0.929412 0 0 0 0 0.945098 0 0 0 1 0"/>
<feBlend mode="normal" in2="BackgroundImageFix" result="effect1_dropShadow_1_4017"/>
<feBlend mode="normal" in="SourceGraphic" in2="effect1_dropShadow_1_4017" result="shape"/>
</filter>
<linearGradient id="paint0_linear_1_4017" x1="39.8097" y1="5.03948" x2="3.64169" y2="33.0707" gradientUnits="userSpaceOnUse">
<stop offset="0.0680483" stop-color="#6FBAFF"/>
<stop offset="0.620079" stop-color="#B1E3FF"/>
<stop offset="0.903389" stop-color="#F2FAFF"/>
</linearGradient>
<linearGradient id="paint1_linear_1_4017" x1="29.2106" y1="42.9562" x2="24.7378" y2="48.5939" gradientUnits="userSpaceOnUse">
<stop offset="0.0680483" stop-color="#6FBAFF"/>
<stop offset="0.620079" stop-color="#B1E3FF"/>
<stop offset="0.903389" stop-color="#F2FAFF"/>
</linearGradient>
<linearGradient id="paint2_linear_1_4017" x1="27.9051" y1="47.7474" x2="23.4981" y2="50.2156" gradientUnits="userSpaceOnUse">
<stop offset="0.0680483" stop-color="#6FBAFF"/>
<stop offset="0.620079" stop-color="#B1E3FF"/>
<stop offset="0.903389" stop-color="#F2FAFF"/>
</linearGradient>
</defs>
</svg>
