<svg width="69" height="66" viewBox="0 0 69 66" fill="none" xmlns="http://www.w3.org/2000/svg">
<g filter="url(#filter0_d_1_4027)">
<path fill-rule="evenodd" clip-rule="evenodd" d="M50.7429 33.8146L51.2522 29.0794C51.524 26.5529 51.7034 24.8846 51.5626 23.8335C50.3219 23.8191 49.2116 23.2625 48.4575 22.3896C47.5518 22.9486 46.3677 24.1282 44.5854 25.9036C43.2122 27.2714 42.5257 27.9553 41.7598 28.0612C41.3354 28.1199 40.903 28.0595 40.5111 27.887C39.8039 27.5756 39.3324 26.7301 38.3893 25.0392L33.4185 16.1265C32.8366 15.0832 32.3498 14.2103 31.9107 13.5077C31.154 13.8937 30.2971 14.1114 29.3894 14.1114C28.4816 14.1114 27.6248 13.8937 26.8681 13.5077C26.429 14.2103 25.9422 15.0832 25.3603 16.1265L20.3895 25.0392C19.4464 26.7301 18.9749 27.5756 18.2677 27.887C17.8758 28.0595 17.4434 28.1199 17.019 28.0612C16.2531 27.9553 15.5665 27.2714 14.1934 25.9036C12.411 24.1282 11.2269 22.9486 10.3213 22.3896C9.56716 23.2625 8.45684 23.8191 7.21619 23.8335C7.07537 24.8846 7.25482 26.5529 7.52657 29.0794L8.03589 33.8146C8.12188 34.614 8.20346 35.4016 8.28346 36.174C8.98429 42.9402 9.564 48.537 11.9228 50.6483C14.5509 53.0006 18.4897 53.0006 26.3673 53.0006H32.4115C40.2891 53.0006 44.2279 53.0006 46.856 50.6483C49.2148 48.537 49.7945 42.9402 50.4953 36.1741C50.5753 35.4017 50.6569 34.6141 50.7429 33.8146Z" fill="url(#paint0_linear_1_4027)"/>
<path d="M51.6115 23.8337C53.9127 23.8337 55.7782 21.9682 55.7782 19.667C55.7782 17.3658 53.9127 15.5003 51.6115 15.5003C49.3103 15.5003 47.4448 17.3658 47.4448 19.667C47.4448 20.7078 47.8264 21.6594 48.4572 22.3896C49.2113 23.2625 50.3216 23.8191 51.5623 23.8335L51.6115 23.8337Z" fill="#ACDCFF"/>
<path d="M29.3891 3.00024C26.3208 3.00024 23.8335 5.48757 23.8335 8.55584C23.8335 10.7164 25.0668 12.5889 26.8678 13.5077C27.6245 13.8937 28.4814 14.1114 29.3891 14.1114C30.2968 14.1114 31.1537 13.8937 31.9104 13.5077C33.7114 12.5889 34.9447 10.7164 34.9447 8.55584C34.9447 5.48757 32.4574 3.00024 29.3891 3.00024Z" fill="#ACDCFF"/>
<path d="M3 19.667C3 21.9682 4.86549 23.8337 7.1667 23.8337L7.2159 23.8335C8.45655 23.8191 9.56687 23.2625 10.321 22.3896C10.9518 21.6594 11.3334 20.7078 11.3334 19.667C11.3334 17.3658 9.4679 15.5003 7.1667 15.5003C4.86549 15.5003 3 17.3658 3 19.667Z" fill="#ACDCFF"/>
<path d="M9.52659 45.3609C9.25441 44.11 9.03675 42.7087 8.84302 41.1942H49.9385C49.7448 42.7087 49.5271 44.11 49.2549 45.3609H9.52659Z" fill="white"/>
</g>
<defs>
<filter id="filter0_d_1_4027" x="0" y="0.000244141" width="68.7781" height="66.0004" filterUnits="userSpaceOnUse" color-interpolation-filters="sRGB">
<feFlood flood-opacity="0" result="BackgroundImageFix"/>
<feColorMatrix in="SourceAlpha" type="matrix" values="0 0 0 0 0 0 0 0 0 0 0 0 0 0 0 0 0 0 127 0" result="hardAlpha"/>
<feOffset dx="5" dy="5"/>
<feGaussianBlur stdDeviation="4"/>
<feComposite in2="hardAlpha" operator="out"/>
<feColorMatrix type="matrix" values="0 0 0 0 0.831545 0 0 0 0 0.92942 0 0 0 0 0.945833 0 0 0 1 0"/>
<feBlend mode="normal" in2="BackgroundImageFix" result="effect1_dropShadow_1_4027"/>
<feBlend mode="normal" in="SourceGraphic" in2="effect1_dropShadow_1_4027" result="shape"/>
</filter>
<linearGradient id="paint0_linear_1_4027" x1="44.8675" y1="15.5211" x2="8.08803" y2="49.7389" gradientUnits="userSpaceOnUse">
<stop offset="0.0680483" stop-color="#6FBAFF"/>
<stop offset="0.620079" stop-color="#B1E3FF"/>
<stop offset="0.903389" stop-color="#F2FAFF"/>
</linearGradient>
</defs>
</svg>
