<svg width="48" height="48" viewBox="0 0 48 48" fill="none" xmlns="http://www.w3.org/2000/svg">
<rect width="48" height="48" rx="24" fill="#FFF2F6"/>
<path d="M25.0281 14.001C26.1535 14.0028 26.7238 14.0088 27.2166 14.0235L27.4107 14.0298C27.6349 14.0378 27.8561 14.0478 28.1228 14.0603C29.1869 14.1094 29.9128 14.2778 30.5503 14.5253C31.2094 14.7794 31.7661 15.1228 32.3219 15.6786C32.8769 16.2344 33.2203 16.7928 33.4753 17.4503C33.7219 18.0869 33.8903 18.8136 33.9403 19.8778C33.9522 20.1444 33.9618 20.3656 33.9697 20.5899L33.976 20.784C33.9906 21.2767 33.9973 21.8471 33.9994 22.9725L34.0002 23.7182C34.0003 23.8093 34.0003 23.9033 34.0003 24.0003L34.0002 24.2824L33.9996 25.0281C33.9977 26.1535 33.9918 26.7238 33.9771 27.2166L33.9707 27.4107C33.9628 27.6349 33.9528 27.8561 33.9403 28.1228C33.8911 29.1869 33.7219 29.9128 33.4753 30.5503C33.2211 31.2094 32.8769 31.7661 32.3219 32.3219C31.7661 32.8769 31.2069 33.2203 30.5503 33.4753C29.9128 33.7219 29.1869 33.8903 28.1228 33.9403C27.8561 33.9522 27.6349 33.9618 27.4107 33.9697L27.2166 33.976C26.7238 33.9906 26.1535 33.9973 25.0281 33.9994L24.2824 34.0002C24.1913 34.0003 24.0973 34.0003 24.0003 34.0003L23.7182 34.0002L22.9725 33.9996C21.8471 33.9977 21.2767 33.9918 20.784 33.9771L20.5899 33.9707C20.3656 33.9628 20.1444 33.9528 19.8778 33.9403C18.8136 33.8911 18.0886 33.7219 17.4503 33.4753C16.7919 33.2211 16.2344 32.8769 15.6786 32.3219C15.1228 31.7661 14.7803 31.2069 14.5253 30.5503C14.2778 29.9128 14.1103 29.1869 14.0603 28.1228C14.0484 27.8561 14.0387 27.6349 14.0309 27.4107L14.0246 27.2166C14.0099 26.7238 14.0033 26.1535 14.0011 25.0281L14.001 22.9725C14.0028 21.8471 14.0088 21.2767 14.0235 20.784L14.0298 20.5899C14.0378 20.3656 14.0478 20.1444 14.0603 19.8778C14.1094 18.8128 14.2778 18.0878 14.5253 17.4503C14.7794 16.7919 15.1228 16.2344 15.6786 15.6786C16.2344 15.1228 16.7928 14.7803 17.4503 14.5253C18.0878 14.2778 18.8128 14.1103 19.8778 14.0603C20.1444 14.0484 20.3656 14.0387 20.5899 14.0309L20.784 14.0246C21.2767 14.0099 21.8471 14.0033 22.9725 14.0011L25.0281 14.001ZM24.0003 19.0003C21.2374 19.0003 19.0003 21.2398 19.0003 24.0003C19.0003 26.7632 21.2398 29.0003 24.0003 29.0003C26.7632 29.0003 29.0003 26.7607 29.0003 24.0003C29.0003 21.2374 26.7607 19.0003 24.0003 19.0003ZM24.0003 21.0003C25.6572 21.0003 27.0003 22.3429 27.0003 24.0003C27.0003 25.6572 25.6576 27.0003 24.0003 27.0003C22.3434 27.0003 21.0003 25.6576 21.0003 24.0003C21.0003 22.3434 22.3429 21.0003 24.0003 21.0003ZM29.2503 17.5003C28.561 17.5003 28.0003 18.0602 28.0003 18.7494C28.0003 19.4387 28.5602 19.9994 29.2503 19.9994C29.9395 19.9994 30.5003 19.4395 30.5003 18.7494C30.5003 18.0602 29.9386 17.4994 29.2503 17.5003Z" fill="url(#paint0_radial_19_45890)"/>
<path d="M25.0281 14.001C26.1535 14.0028 26.7238 14.0088 27.2166 14.0235L27.4107 14.0298C27.6349 14.0378 27.8561 14.0478 28.1228 14.0603C29.1869 14.1094 29.9128 14.2778 30.5503 14.5253C31.2094 14.7794 31.7661 15.1228 32.3219 15.6786C32.8769 16.2344 33.2203 16.7928 33.4753 17.4503C33.7219 18.0869 33.8903 18.8136 33.9403 19.8778C33.9522 20.1444 33.9618 20.3656 33.9697 20.5899L33.976 20.784C33.9906 21.2767 33.9973 21.8471 33.9994 22.9725L34.0002 23.7182C34.0003 23.8093 34.0003 23.9033 34.0003 24.0003L34.0002 24.2824L33.9996 25.0281C33.9977 26.1535 33.9918 26.7238 33.9771 27.2166L33.9707 27.4107C33.9628 27.6349 33.9528 27.8561 33.9403 28.1228C33.8911 29.1869 33.7219 29.9128 33.4753 30.5503C33.2211 31.2094 32.8769 31.7661 32.3219 32.3219C31.7661 32.8769 31.2069 33.2203 30.5503 33.4753C29.9128 33.7219 29.1869 33.8903 28.1228 33.9403C27.8561 33.9522 27.6349 33.9618 27.4107 33.9697L27.2166 33.976C26.7238 33.9906 26.1535 33.9973 25.0281 33.9994L24.2824 34.0002C24.1913 34.0003 24.0973 34.0003 24.0003 34.0003L23.7182 34.0002L22.9725 33.9996C21.8471 33.9977 21.2767 33.9918 20.784 33.9771L20.5899 33.9707C20.3656 33.9628 20.1444 33.9528 19.8778 33.9403C18.8136 33.8911 18.0886 33.7219 17.4503 33.4753C16.7919 33.2211 16.2344 32.8769 15.6786 32.3219C15.1228 31.7661 14.7803 31.2069 14.5253 30.5503C14.2778 29.9128 14.1103 29.1869 14.0603 28.1228C14.0484 27.8561 14.0387 27.6349 14.0309 27.4107L14.0246 27.2166C14.0099 26.7238 14.0033 26.1535 14.0011 25.0281L14.001 22.9725C14.0028 21.8471 14.0088 21.2767 14.0235 20.784L14.0298 20.5899C14.0378 20.3656 14.0478 20.1444 14.0603 19.8778C14.1094 18.8128 14.2778 18.0878 14.5253 17.4503C14.7794 16.7919 15.1228 16.2344 15.6786 15.6786C16.2344 15.1228 16.7928 14.7803 17.4503 14.5253C18.0878 14.2778 18.8128 14.1103 19.8778 14.0603C20.1444 14.0484 20.3656 14.0387 20.5899 14.0309L20.784 14.0246C21.2767 14.0099 21.8471 14.0033 22.9725 14.0011L25.0281 14.001ZM24.0003 19.0003C21.2374 19.0003 19.0003 21.2398 19.0003 24.0003C19.0003 26.7632 21.2398 29.0003 24.0003 29.0003C26.7632 29.0003 29.0003 26.7607 29.0003 24.0003C29.0003 21.2374 26.7607 19.0003 24.0003 19.0003ZM24.0003 21.0003C25.6572 21.0003 27.0003 22.3429 27.0003 24.0003C27.0003 25.6572 25.6576 27.0003 24.0003 27.0003C22.3434 27.0003 21.0003 25.6576 21.0003 24.0003C21.0003 22.3434 22.3429 21.0003 24.0003 21.0003ZM29.2503 17.5003C28.561 17.5003 28.0003 18.0602 28.0003 18.7494C28.0003 19.4387 28.5602 19.9994 29.2503 19.9994C29.9395 19.9994 30.5003 19.4395 30.5003 18.7494C30.5003 18.0602 29.9386 17.4994 29.2503 17.5003Z" fill="url(#paint1_radial_19_45890)"/>
<defs>
<radialGradient id="paint0_radial_19_45890" cx="0" cy="0" r="1" gradientUnits="userSpaceOnUse" gradientTransform="translate(16.6581 34.0948) scale(26.1085 26.1074)">
<stop offset="0.09" stop-color="#FA8F21"/>
<stop offset="0.78" stop-color="#D82D7E"/>
</radialGradient>
<radialGradient id="paint1_radial_19_45890" cx="0" cy="0" r="1" gradientUnits="userSpaceOnUse" gradientTransform="translate(26.1302 34.9907) scale(20.5771 20.5763)">
<stop offset="0.64" stop-color="#8C3AAA" stop-opacity="0"/>
<stop offset="1" stop-color="#8C3AAA"/>
</radialGradient>
</defs>
</svg>
