<svg width="48" height="48" viewBox="0 0 48 48" fill="none" xmlns="http://www.w3.org/2000/svg">
<rect width="48" height="48" rx="24" fill="#E7FFF5"/>
<g clip-path="url(#clip0_19_45906)">
<path d="M20.5797 27.4197C20.0913 26.9322 20.0913 26.1397 20.5797 25.6522C21.068 25.1638 21.8588 25.1638 22.3472 25.6522C23.4522 26.7572 25.3805 26.758 26.4855 25.6522L30.643 21.4947C31.7838 20.3538 31.7838 18.4972 30.643 17.3563C29.5022 16.2155 27.6455 16.2155 26.5047 17.3563C26.0163 17.8447 25.2255 17.8447 24.7372 17.3563C24.2488 16.8688 24.2488 16.0763 24.7372 15.5888C26.8522 13.473 30.2955 13.473 32.4105 15.5888C34.5263 17.7047 34.5263 21.1463 32.4105 23.2622L28.253 27.4197C27.1947 28.478 25.8055 29.0063 24.4163 29.0063C23.0272 29.0063 21.6372 28.4772 20.5797 27.4197ZM19.4263 33.9972C20.8155 33.9972 22.2047 33.468 23.263 32.4105C23.7513 31.923 23.7513 31.1305 23.263 30.643C22.7747 30.1547 21.9838 30.1547 21.4955 30.643C20.3538 31.7847 18.4972 31.7838 17.3572 30.643C16.2163 29.5022 16.2163 27.6455 17.3572 26.5047L21.4913 22.3705C22.633 21.2288 24.4897 21.2288 25.6297 22.3705C26.118 22.8588 26.9088 22.8588 27.3972 22.3705C27.8855 21.883 27.8855 21.0905 27.3972 20.603C25.2813 18.4872 21.8397 18.4872 19.7238 20.603L15.5888 24.7372C13.473 26.853 13.473 30.2947 15.5888 32.4105C16.6472 33.4688 18.0372 33.9972 19.4263 33.9972Z" fill="#3DD598"/>
</g>
<defs>
<clipPath id="clip0_19_45906">
<rect width="20" height="20" fill="white" transform="translate(14 14)"/>
</clipPath>
</defs>
</svg>
