<svg width="265" height="131" viewBox="0 0 265 131" fill="none" xmlns="http://www.w3.org/2000/svg">
<rect x="16" width="233" height="131" rx="8" fill="#F5F5F5"/>
<rect x="16.5" y="0.5" width="232" height="130" rx="7.5" stroke="black" stroke-opacity="0.04"/>
<path fill-rule="evenodd" clip-rule="evenodd" d="M67.8667 16.275C67.1904 16.6097 66.6721 17.3178 66.5499 18.0742L66.4572 18.6481L64.6011 18.7039C62.5036 18.7669 61.9349 19.0137 61.4313 20.0795C61.0281 20.933 61.0281 29.8161 61.4313 30.6697C61.93 31.7251 62.5098 31.9821 64.5372 32.0461C65.7522 32.0846 66.3308 32.1655 66.333 32.2973C66.3348 32.4043 65.7954 35.4122 65.1341 38.9812L63.9319 45.4706L55.4182 45.4712C47.2169 45.4717 46.8844 45.484 46.361 45.8047C45.4679 46.3514 45.1263 47.0635 45.192 48.241C45.258 49.4243 45.679 50.1421 46.5511 50.5577C47.0525 50.7967 48.0786 50.8295 55.028 50.8295H62.9343L61.9327 56.1884L60.9311 61.5474H50.0244C37.9691 61.5474 38.389 61.5114 37.6053 62.6146C37.3123 63.0273 37.2334 63.3691 37.2334 64.2268C37.2334 65.4761 37.6066 66.1787 38.5018 66.6141C39.0252 66.8686 39.0157 66.8718 37.5484 66.9306C36.343 66.979 35.9689 67.0597 35.5449 67.3635C34.6201 68.0261 34.4497 68.6495 34.5112 71.1452C34.5596 73.1113 34.6064 73.4112 34.9374 73.8774C35.6649 74.9017 35.9245 74.9447 41.3854 74.9447C44.1 74.9447 46.3208 75.0023 46.3208 75.0728C46.3208 75.1433 45.3829 78.0246 44.2365 81.4759C43.0007 85.1965 42.1523 88.0153 42.1523 88.4005C42.1523 89.1576 42.652 90.1257 43.2891 90.6028C43.7238 90.9284 44.0328 90.9389 54.3243 90.9823C64.3948 91.0245 64.9409 91.0114 65.496 90.7137C66.2336 90.3178 66.8236 89.3029 66.8272 88.4232C66.8289 88.0029 66.0485 85.3986 64.7456 81.4759C63.5993 78.0246 62.6614 75.1433 62.6614 75.0728C62.6614 75.0023 63.5431 74.9444 64.6206 74.9439L66.5798 74.9428L68.8788 62.5932C70.1434 55.8007 71.9253 46.2615 72.8389 41.3949L74.4999 32.5465V25.1842C74.4999 16.9974 74.5266 17.2054 73.3756 16.42C72.7895 16.0199 72.6348 15.9966 70.5845 16.0003C68.9276 16.0032 68.2844 16.0681 67.8667 16.275Z" fill="#E0E2E6"/>
<path fill-rule="evenodd" clip-rule="evenodd" d="M119.867 16.275C119.19 16.6097 118.672 17.3178 118.55 18.0742L118.457 18.6481L116.601 18.7039C114.504 18.7669 113.935 19.0137 113.431 20.0795C113.028 20.933 113.028 29.8161 113.431 30.6697C113.93 31.7251 114.51 31.9821 116.537 32.0461C117.752 32.0846 118.331 32.1655 118.333 32.2973C118.335 32.4043 117.795 35.4122 117.134 38.9812L115.932 45.4706L107.418 45.4712C99.2169 45.4717 98.8844 45.484 98.361 45.8047C97.4679 46.3514 97.1263 47.0635 97.192 48.241C97.258 49.4243 97.679 50.1421 98.5511 50.5577C99.0525 50.7967 100.079 50.8295 107.028 50.8295H114.934L113.933 56.1884L112.931 61.5474H102.024C89.9691 61.5474 90.389 61.5114 89.6053 62.6146C89.3123 63.0273 89.2334 63.3691 89.2334 64.2268C89.2334 65.4761 89.6066 66.1787 90.5018 66.6141C91.0252 66.8686 91.0157 66.8718 89.5484 66.9306C88.343 66.979 87.9689 67.0597 87.5449 67.3635C86.6201 68.0261 86.4497 68.6495 86.5112 71.1452C86.5596 73.1113 86.6064 73.4112 86.9374 73.8774C87.6649 74.9017 87.9245 74.9447 93.3854 74.9447C96.1 74.9447 98.3208 75.0023 98.3208 75.0728C98.3208 75.1433 97.3829 78.0246 96.2365 81.4759C95.0007 85.1965 94.1523 88.0153 94.1523 88.4005C94.1523 89.1576 94.652 90.1257 95.2891 90.6028C95.7238 90.9284 96.0328 90.9389 106.324 90.9823C116.395 91.0245 116.941 91.0114 117.496 90.7137C118.234 90.3178 118.824 89.3029 118.827 88.4232C118.829 88.0029 118.049 85.3986 116.746 81.4759C115.599 78.0246 114.661 75.1433 114.661 75.0728C114.661 75.0023 115.543 74.9444 116.621 74.9439L118.58 74.9428L120.879 62.5932C122.143 55.8007 123.925 46.2615 124.839 41.3949L126.5 32.5465V25.1842C126.5 16.9974 126.527 17.2054 125.376 16.42C124.79 16.0199 124.635 15.9966 122.585 16.0003C120.928 16.0032 120.284 16.0681 119.867 16.275Z" fill="#475569"/>
<path fill-rule="evenodd" clip-rule="evenodd" d="M171.867 16.275C171.19 16.6097 170.672 17.3178 170.55 18.0742L170.457 18.6481L168.601 18.7039C166.504 18.7669 165.935 19.0137 165.431 20.0795C165.028 20.933 165.028 29.8161 165.431 30.6697C165.93 31.7251 166.51 31.9821 168.537 32.0461C169.752 32.0846 170.331 32.1655 170.333 32.2973C170.335 32.4043 169.795 35.4122 169.134 38.9812L167.932 45.4706L159.418 45.4712C151.217 45.4717 150.884 45.484 150.361 45.8047C149.468 46.3514 149.126 47.0635 149.192 48.241C149.258 49.4243 149.679 50.1421 150.551 50.5577C151.052 50.7967 152.079 50.8295 159.028 50.8295H166.934L165.933 56.1884L164.931 61.5474H154.024C141.969 61.5474 142.389 61.5114 141.605 62.6146C141.312 63.0273 141.233 63.3691 141.233 64.2268C141.233 65.4761 141.607 66.1787 142.502 66.6141C143.025 66.8686 143.016 66.8718 141.548 66.9306C140.343 66.979 139.969 67.0597 139.545 67.3635C138.62 68.0261 138.45 68.6495 138.511 71.1452C138.56 73.1113 138.606 73.4112 138.937 73.8774C139.665 74.9017 139.925 74.9447 145.385 74.9447C148.1 74.9447 150.321 75.0023 150.321 75.0728C150.321 75.1433 149.383 78.0246 148.237 81.4759C147.001 85.1965 146.152 88.0153 146.152 88.4005C146.152 89.1576 146.652 90.1257 147.289 90.6028C147.724 90.9284 148.033 90.9389 158.324 90.9823C168.395 91.0245 168.941 91.0114 169.496 90.7137C170.234 90.3178 170.824 89.3029 170.827 88.4232C170.829 88.0029 170.049 85.3986 168.746 81.4759C167.599 78.0246 166.661 75.1433 166.661 75.0728C166.661 75.0023 167.543 74.9444 168.621 74.9439L170.58 74.9428L172.879 62.5932C174.143 55.8007 175.925 46.2615 176.839 41.3949L178.5 32.5465V25.1842C178.5 16.9974 178.527 17.2054 177.376 16.42C176.79 16.0199 176.635 15.9966 174.585 16.0003C172.928 16.0032 172.284 16.0681 171.867 16.275Z" fill="#475569"/>
<path fill-rule="evenodd" clip-rule="evenodd" d="M223.867 16.275C223.19 16.6097 222.672 17.3178 222.55 18.0742L222.457 18.6481L220.601 18.7039C218.504 18.7669 217.935 19.0137 217.431 20.0795C217.028 20.933 217.028 29.8161 217.431 30.6697C217.93 31.7251 218.51 31.9821 220.537 32.0461C221.752 32.0846 222.331 32.1655 222.333 32.2973C222.335 32.4043 221.795 35.4122 221.134 38.9812L219.932 45.4706L211.418 45.4712C203.217 45.4717 202.884 45.484 202.361 45.8047C201.468 46.3514 201.126 47.0635 201.192 48.241C201.258 49.4243 201.679 50.1421 202.551 50.5577C203.052 50.7967 204.079 50.8295 211.028 50.8295H218.934L217.933 56.1884L216.931 61.5474H206.024C193.969 61.5474 194.389 61.5114 193.605 62.6146C193.312 63.0273 193.233 63.3691 193.233 64.2268C193.233 65.4761 193.607 66.1787 194.502 66.6141C195.025 66.8686 195.016 66.8718 193.548 66.9306C192.343 66.979 191.969 67.0597 191.545 67.3635C190.62 68.0261 190.45 68.6495 190.511 71.1452C190.56 73.1113 190.606 73.4112 190.937 73.8774C191.665 74.9017 191.925 74.9447 197.385 74.9447C200.1 74.9447 202.321 75.0023 202.321 75.0728C202.321 75.1433 201.383 78.0246 200.237 81.4759C199.001 85.1965 198.152 88.0153 198.152 88.4005C198.152 89.1576 198.652 90.1257 199.289 90.6028C199.724 90.9284 200.033 90.9389 210.324 90.9823C220.395 91.0245 220.941 91.0114 221.496 90.7137C222.234 90.3178 222.824 89.3029 222.827 88.4232C222.829 88.0029 222.049 85.3986 220.746 81.4759C219.599 78.0246 218.661 75.1433 218.661 75.0728C218.661 75.0023 219.543 74.9444 220.621 74.9439L222.58 74.9428L224.879 62.5932C226.143 55.8007 227.925 46.2615 228.839 41.3949L230.5 32.5465V25.1842C230.5 16.9974 230.527 17.2054 229.376 16.42C228.79 16.0199 228.635 15.9966 226.585 16.0003C224.928 16.0032 224.284 16.0681 223.867 16.275Z" fill="#E0E2E6"/>
<path d="M117.146 100.646C116.951 100.842 116.951 101.158 117.146 101.354L120.328 104.536C120.524 104.731 120.84 104.731 121.036 104.536C121.231 104.34 121.231 104.024 121.036 103.828L118.207 101L121.036 98.1716C121.231 97.9763 121.231 97.6597 121.036 97.4645C120.84 97.2692 120.524 97.2692 120.328 97.4645L117.146 100.646ZM147.854 101.354C148.049 101.158 148.049 100.842 147.854 100.646L144.672 97.4645C144.476 97.2692 144.16 97.2692 143.964 97.4645C143.769 97.6597 143.769 97.9763 143.964 98.1716L146.793 101L143.964 103.828C143.769 104.024 143.769 104.34 143.964 104.536C144.16 104.731 144.476 104.731 144.672 104.536L147.854 101.354ZM117.5 101.5H147.5V100.5H117.5V101.5Z" fill="#6A67F8"/>
<path d="M119 119L122.46 112.43V112.83H118.6V111.95H123.4V112.72L120.14 119H119ZM126.926 119.09C126.446 119.09 125.986 119.02 125.546 118.88C125.106 118.733 124.739 118.527 124.446 118.26L124.806 117.47C125.133 117.723 125.466 117.91 125.806 118.03C126.146 118.15 126.509 118.21 126.896 118.21C127.389 118.21 127.763 118.107 128.016 117.9C128.276 117.693 128.406 117.397 128.406 117.01C128.406 116.63 128.276 116.343 128.016 116.15C127.763 115.95 127.386 115.85 126.886 115.85H125.796V115.01H126.806C127.233 115.01 127.573 114.903 127.826 114.69C128.079 114.47 128.206 114.173 128.206 113.8C128.206 113.46 128.089 113.2 127.856 113.02C127.623 112.833 127.289 112.74 126.856 112.74C126.123 112.74 125.479 112.997 124.926 113.51L124.576 112.72C124.849 112.447 125.196 112.237 125.616 112.09C126.036 111.937 126.476 111.86 126.936 111.86C127.643 111.86 128.199 112.023 128.606 112.35C129.013 112.67 129.216 113.117 129.216 113.69C129.216 114.123 129.093 114.493 128.846 114.8C128.606 115.107 128.276 115.31 127.856 115.41V115.3C128.356 115.38 128.739 115.58 129.006 115.9C129.279 116.213 129.416 116.607 129.416 117.08C129.416 117.707 129.193 118.2 128.746 118.56C128.306 118.913 127.699 119.09 126.926 119.09ZM135.608 119.09C135.102 119.09 134.658 118.987 134.278 118.78C133.905 118.567 133.615 118.263 133.408 117.87C133.208 117.47 133.108 116.997 133.108 116.45C133.108 115.91 133.212 115.447 133.418 115.06C133.625 114.673 133.915 114.38 134.288 114.18C134.662 113.973 135.102 113.87 135.608 113.87C135.935 113.87 136.252 113.927 136.558 114.04C136.865 114.147 137.118 114.3 137.318 114.5L136.988 115.21C136.802 115.03 136.592 114.897 136.358 114.81C136.125 114.717 135.898 114.67 135.678 114.67C135.198 114.67 134.822 114.823 134.548 115.13C134.275 115.437 134.138 115.88 134.138 116.46C134.138 117.047 134.275 117.497 134.548 117.81C134.822 118.123 135.198 118.28 135.678 118.28C135.892 118.28 136.115 118.24 136.348 118.16C136.582 118.073 136.795 117.937 136.988 117.75L137.318 118.46C137.112 118.66 136.852 118.817 136.538 118.93C136.232 119.037 135.922 119.09 135.608 119.09ZM138.388 119V115.17C138.388 114.977 138.378 114.78 138.358 114.58C138.345 114.373 138.328 114.167 138.308 113.96H139.288L139.378 115.02H139.258C139.398 114.653 139.612 114.37 139.898 114.17C140.192 113.97 140.542 113.87 140.948 113.87C141.362 113.87 141.698 113.97 141.958 114.17C142.225 114.363 142.408 114.663 142.508 115.07H142.348C142.482 114.703 142.708 114.413 143.028 114.2C143.348 113.98 143.718 113.87 144.138 113.87C144.698 113.87 145.118 114.033 145.398 114.36C145.678 114.687 145.818 115.193 145.818 115.88V119H144.808V115.93C144.808 115.49 144.732 115.173 144.578 114.98C144.432 114.78 144.192 114.68 143.858 114.68C143.472 114.68 143.165 114.813 142.938 115.08C142.712 115.347 142.598 115.707 142.598 116.16V119H141.588V115.93C141.588 115.49 141.512 115.173 141.358 114.98C141.212 114.78 140.972 114.68 140.638 114.68C140.252 114.68 139.948 114.813 139.728 115.08C139.508 115.347 139.398 115.707 139.398 116.16V119H138.388Z" fill="#23282D"/>
</svg>
