<svg width="232" height="150" viewBox="0 0 232 150" fill="none" xmlns="http://www.w3.org/2000/svg">
<g clip-path="url(#clip0_19_44980)">
<rect width="232" height="150" rx="8" fill="#F5F5F5"/>
<path d="M10 150L69 130H156.811L222 150H10Z" fill="white"/>
<path d="M156.336 226.887L156.149 226.722L155.674 226.305V102.016V94.2387V94.229L155.674 94.2192C154.635 67.6145 147.242 53.7832 140.118 40.4613L140.118 40.4612L140.118 40.4611L140.118 40.461L140.118 40.4609L140.118 40.4608L140.118 40.4606L140.118 40.4605L140.118 40.4604L140.118 40.4603L140.117 40.4602L140.117 40.4601L140.117 40.46L140.117 40.4599L140.117 40.4597L140.117 40.4596L140.117 40.4595L140.117 40.4594L140.117 40.4593L140.117 40.4592L140.117 40.4591L140.117 40.459L140.117 40.4588L140.117 40.4587L140.117 40.4586L140.117 40.4585L140.117 40.4584L140.116 40.4583L140.116 40.4582L140.116 40.4581L140.116 40.4579L140.116 40.4578L140.116 40.4577L140.116 40.4576L140.116 40.4575L140.116 40.4574L140.116 40.4573L140.116 40.4571L140.116 40.457L140.116 40.4569L140.116 40.4568L140.116 40.4567L140.116 40.4566L140.115 40.4565L140.115 40.4563L140.115 40.4562L140.115 40.4561L140.115 40.456L140.115 40.4559L140.115 40.4558L140.115 40.4557L140.115 40.4556L140.115 40.4554L140.115 40.4553L140.115 40.4552L140.115 40.4551L140.115 40.455L140.115 40.4549L140.115 40.4548L140.115 40.4547L140.114 40.4545L140.114 40.4544L140.114 40.4543L140.114 40.4542L140.114 40.4541L140.114 40.454L140.114 40.4539L140.114 40.4538L140.114 40.4536L140.114 40.4535L140.114 40.4534L140.114 40.4533L140.114 40.4532L140.114 40.4531L140.114 40.453L140.114 40.4528L140.113 40.4527L140.113 40.4526L140.113 40.4525L140.113 40.4524L140.113 40.4523L140.113 40.4522L140.113 40.4521L140.113 40.4519L140.113 40.4518L140.113 40.4517L140.113 40.4516L140.113 40.4515L140.113 40.4514L140.113 40.4513L140.113 40.4511L140.113 40.451L140.113 40.4509L140.112 40.4508L140.112 40.4507L140.112 40.4506L140.112 40.4505L140.112 40.4503L140.112 40.4502L140.112 40.4501L140.112 40.45L140.112 40.4499L140.112 40.4498L140.112 40.4497L140.112 40.4496L140.112 40.4494L140.112 40.4493L140.112 40.4492L140.112 40.4491L140.111 40.449L140.111 40.4489L140.111 40.4488L140.111 40.4487L140.111 40.4485L140.111 40.4484L140.111 40.4483L140.111 40.4482L140.111 40.4481L140.111 40.448L140.111 40.4479L140.111 40.4478L140.111 40.4476L140.111 40.4475L140.111 40.4474L140.111 40.4473L140.111 40.4472L140.11 40.4471L140.11 40.447L140.11 40.4468L140.11 40.4467L140.11 40.4466L140.11 40.4465L140.11 40.4464L140.11 40.4463L140.11 40.4462L140.11 40.446L140.11 40.4459L140.11 40.4458L140.11 40.4457L140.11 40.4456L140.11 40.4455L140.11 40.4454L140.11 40.4453L140.109 40.4451L140.109 40.445L140.109 40.4449L140.109 40.4448L140.109 40.4447L140.109 40.4446L140.109 40.4445L140.109 40.4444L140.109 40.4442L140.109 40.4441L140.109 40.444L140.109 40.4439L140.109 40.4438L140.109 40.4437L140.109 40.4436L140.109 40.4435L140.108 40.4433L140.108 40.4432L140.108 40.4431L140.108 40.443L140.108 40.4429L140.108 40.4428L140.108 40.4427L140.108 40.4425L140.108 40.4424L140.108 40.4423L140.108 40.4422L140.108 40.4421L140.108 40.442L140.108 40.4419L140.108 40.4418L140.108 40.4416L140.108 40.4415L140.107 40.4414L140.107 40.4413L140.107 40.4412L140.107 40.4411L140.107 40.441L140.107 40.4408L140.107 40.4407L140.107 40.4406L140.107 40.4405L140.107 40.4404L140.107 40.4403L140.107 40.4402L140.107 40.44L140.107 40.4399L140.107 40.4398L140.107 40.4397L140.106 40.4396L140.106 40.4395L140.106 40.4394L140.106 40.4393L140.106 40.4391L140.106 40.439L140.106 40.4389L140.106 40.4388L140.106 40.4387L140.106 40.4386L140.106 40.4385L140.106 40.4384L140.106 40.4382L140.106 40.4381L140.106 40.438L140.106 40.4379L140.106 40.4378L140.105 40.4377L140.105 40.4376L140.105 40.4375L140.105 40.4373L140.105 40.4372L140.105 40.4371L140.105 40.437L140.105 40.4369L140.105 40.4368L140.105 40.4367L140.105 40.4365L140.105 40.4364L140.105 40.4363L140.105 40.4362L140.105 40.4361L140.105 40.436L140.104 40.4359L140.104 40.4357L140.104 40.4356L140.104 40.4355L140.104 40.4354L140.104 40.4353L140.104 40.4352L140.104 40.4351L140.104 40.435L140.104 40.4348L140.104 40.4347L140.104 40.4346L140.104 40.4345L140.104 40.4344L140.104 40.4343L140.104 40.4342L140.104 40.4341L140.103 40.4339L140.103 40.4338L140.103 40.4337L140.103 40.4336L140.103 40.4335L140.103 40.4334L140.103 40.4333L140.103 40.4332L140.103 40.433L140.103 40.4329L140.103 40.4328L140.103 40.4327L140.103 40.4326L140.103 40.4325L140.103 40.4324L140.103 40.4322L140.102 40.4321L140.102 40.432L140.102 40.4319L140.102 40.4318L140.102 40.4317L140.102 40.4316L140.102 40.4314L140.102 40.4313L140.102 40.4312L140.102 40.4311L140.102 40.431L140.102 40.4309L140.102 40.4308L140.102 40.4307L140.102 40.4305L140.102 40.4304L140.102 40.4303L140.101 40.4302L140.101 40.4301L140.101 40.43L140.101 40.4299L140.101 40.4297L140.101 40.4296L140.101 40.4295L140.101 40.4294L140.101 40.4293L140.101 40.4292L140.101 40.4291L140.101 40.429L140.101 40.4288L140.101 40.4287L140.101 40.4286L140.101 40.4285L140.1 40.4284L140.1 40.4283L140.1 40.4282L140.1 40.4281L140.1 40.4279L140.1 40.4278L140.1 40.4277L140.1 40.4276L140.1 40.4275L140.1 40.4274L140.1 40.4273L140.1 40.4272L140.1 40.427L140.1 40.4269L140.1 40.4268L140.1 40.4267L140.1 40.4266L140.099 40.4265L140.099 40.4264L140.099 40.4262L140.099 40.4261L140.099 40.426L140.099 40.4259L140.099 40.4258L140.099 40.4257L140.099 40.4256L140.099 40.4254L140.099 40.4253L140.099 40.4252L140.099 40.4251L140.099 40.425L140.099 40.4249L140.099 40.4248L140.098 40.4247L140.098 40.4245L140.098 40.4244L140.098 40.4243L140.098 40.4242L140.098 40.4241L140.098 40.424L140.098 40.4239L140.098 40.4238L140.098 40.4236L140.098 40.4235L140.098 40.4234L140.098 40.4233L140.098 40.4232L140.098 40.4231L140.098 40.423L140.098 40.4229L140.097 40.4227L140.097 40.4226L140.097 40.4225L140.097 40.4224L140.097 40.4223L140.097 40.4222L140.097 40.4221L140.097 40.4219L140.097 40.4218L140.097 40.4217L140.097 40.4216L140.097 40.4215L140.097 40.4214L140.097 40.4213L140.097 40.4211L140.097 40.421L140.096 40.4209L140.096 40.4208L140.096 40.4207L140.096 40.4206L140.096 40.4205L140.096 40.4204L140.096 40.4202L140.096 40.4201L140.096 40.42L140.096 40.4199L140.096 40.4198L140.096 40.4197L140.096 40.4196L140.096 40.4194L140.096 40.4193L140.096 40.4192L140.096 40.4191L140.095 40.419L140.095 40.4189L140.095 40.4188L140.095 40.4187L140.095 40.4185L140.095 40.4184L140.095 40.4183L140.095 40.4182L140.095 40.4181L140.095 40.418L140.095 40.4179L140.095 40.4178L140.095 40.4176L140.095 40.4175L140.095 40.4174L140.095 40.4173L140.095 40.4172L140.094 40.4171L140.094 40.417L140.094 40.4169L140.094 40.4167L140.094 40.4166L140.094 40.4165L140.094 40.4164L140.094 40.4163L140.094 40.4162L140.094 40.4161L140.094 40.4159L140.094 40.4158L140.094 40.4157L140.094 40.4156L140.094 40.4155L140.094 40.4154L140.093 40.4153L140.093 40.4151L140.093 40.415L140.093 40.4149L140.093 40.4148L140.093 40.4147L140.093 40.4146L140.093 40.4145L140.093 40.4144L140.093 40.4142L140.093 40.4141L140.093 40.414L140.093 40.4139L140.093 40.4138L140.093 40.4137L140.093 40.4136L140.093 40.4135L140.092 40.4133L140.092 40.4132L140.092 40.4131L140.092 40.413L140.092 40.4129L140.092 40.4128L140.092 40.4127L140.092 40.4126L140.092 40.4124L140.092 40.4123L140.092 40.4122L140.092 40.4121L140.092 40.412L140.092 40.4119L140.092 40.4118L140.092 40.4116L140.091 40.4115L140.091 40.4114L140.091 40.4113L140.091 40.4112L140.091 40.4111L140.091 40.411L140.091 40.4108L140.091 40.4107L140.091 40.4106L140.091 40.4105L140.091 40.4104L140.091 40.4103L140.091 40.4102L140.091 40.41L140.091 40.4099L140.091 40.4098L140.091 40.4097L140.09 40.4096L140.09 40.4095L140.09 40.4094L140.09 40.4093L140.09 40.4091L140.09 40.409L140.09 40.4089L140.09 40.4088L140.09 40.4087L140.09 40.4086L140.09 40.4085L140.09 40.4084L140.09 40.4082L140.09 40.4081L140.09 40.408L140.09 40.4079L140.089 40.4078L140.089 40.4077L140.089 40.4076L140.089 40.4075L140.089 40.4073L140.089 40.4072L140.089 40.4071L140.089 40.407L140.089 40.4069L140.089 40.4068L140.089 40.4067L140.089 40.4066L140.089 40.4064L140.089 40.4063L140.089 40.4062L140.089 40.4061L140.089 40.406L140.088 40.4059L140.088 40.4058L140.088 40.4056L140.088 40.4055L140.088 40.4054L140.088 40.4053L140.088 40.4052L140.088 40.4051L140.088 40.405L140.088 40.4048L140.088 40.4047L140.088 40.4046L140.088 40.4045L140.088 40.4044L140.088 40.4043L140.088 40.4042L140.087 40.4041L140.087 40.4039L140.087 40.4038L140.087 40.4037L140.087 40.4036C138.133 36.7462 136.121 32.9806 134.327 29.0731L156.336 226.887ZM156.336 226.887V94.2169C155.289 67.4267 147.888 53.5871 140.703 40.1511L140.702 40.1501L140.702 40.15L140.684 40.1161C138.651 36.3108 136.722 32.7006 134.928 28.7968L134.927 28.7962C133.204 25.0332 131 21.2662 128.355 17.5661L156.336 226.887ZM155.674 249.101L156.336 249.409V227.265L156.196 227.426L155.923 227.739L155.674 228.024V249.101ZM71.1218 248.838H154.674V227.083V226.757V226.531V225.977V102.016L71.1218 248.838ZM69.5099 249.361L70.1213 249.037L70.1689 227.48V227.479V226.925L69.5099 249.361ZM99.0494 18.3797L98.6917 18.1219L100.7 16.1521C100.124 16.8878 99.5903 17.6291 99.0494 18.3797Z" fill="white" stroke="white"/>
<path d="M78 89C78 85.6863 80.6863 83 84 83H112.5H142C145.314 83 148 85.6863 148 89V149H78V89Z" fill="#EAEDF2"/>
<path d="M113.287 39.6211C113.472 39.6211 113.621 39.7706 113.621 39.955C113.621 40.136 113.766 40.2838 113.947 40.2908C119.475 40.5056 124.751 42.5165 129.429 45.9645C129.533 46.0407 129.679 46.0165 129.751 45.9103C129.821 45.8075 129.961 45.7807 130.064 45.8504L130.393 46.0737L130.671 46.2626C130.802 46.3513 130.836 46.5289 130.747 46.6594C130.664 46.7823 130.688 46.9486 130.803 47.0428C135.075 50.5404 138.784 55.2536 141.644 60.9015C141.718 61.0472 141.888 61.1167 142.042 61.063C142.211 61.0042 142.396 61.0933 142.455 61.2623L142.685 61.9185C142.726 62.0357 142.664 62.1639 142.547 62.2047C142.421 62.2484 142.361 62.3914 142.417 62.5122C143.048 63.8716 143.633 65.2771 144.167 66.7269C145.337 69.9003 142.179 72.7065 138.978 71.6168C137.747 71.1978 136.763 70.2426 136.236 69.0537C135.652 67.7355 135.012 66.4798 134.324 65.2852C134.264 65.1816 134.139 65.1356 134.026 65.1752C133.896 65.2208 133.754 65.1523 133.709 65.0223L133.585 64.6698L133.408 64.1637C133.392 64.1195 133.415 64.071 133.46 64.0556C133.511 64.0376 133.533 63.9763 133.503 63.9303C131.197 60.2898 128.405 57.3311 125.285 55.1838C125.161 55.0984 124.991 55.1314 124.907 55.2561C124.822 55.3813 124.651 55.4138 124.526 55.3288L124.239 55.1333L123.931 54.9247C123.816 54.8469 123.786 54.6907 123.864 54.576C123.945 54.4568 123.909 54.2939 123.785 54.2211C120.709 52.4201 117.361 51.3922 113.884 51.2363C113.74 51.2299 113.621 51.3451 113.621 51.4887C113.621 51.6291 113.507 51.743 113.367 51.743H112.633C112.492 51.743 112.377 51.6282 112.377 51.4867C112.377 51.3423 112.258 51.2262 112.113 51.2322C108.641 51.3774 105.293 52.3984 102.214 54.1952C102.084 54.2712 102.047 54.4417 102.131 54.5664C102.213 54.6864 102.182 54.8498 102.061 54.9311L101.763 55.1333L101.484 55.3225C101.353 55.411 101.175 55.3769 101.087 55.2462C100.998 55.116 100.821 55.0814 100.692 55.1706C97.5775 57.3123 94.7834 60.2653 92.4707 63.8982C92.4353 63.9538 92.4611 64.0281 92.5234 64.0498C92.5769 64.0684 92.6052 64.127 92.5864 64.1805L92.4147 64.6698L92.2991 65.0004C92.2493 65.1426 92.0938 65.2175 91.9516 65.1679C91.8284 65.1248 91.6919 65.175 91.6267 65.2881C90.9479 66.4651 90.3144 67.701 89.7355 68.9981C89.1986 70.2009 88.208 71.1558 86.9548 71.5611L86.8511 71.5947C83.6761 72.6216 80.6466 69.8096 81.8035 66.6797C82.3375 65.2349 82.9225 63.8342 83.5526 62.479C83.6038 62.3688 83.549 62.2384 83.4343 62.1984C83.3274 62.1611 83.271 62.0441 83.3084 61.9373L83.5514 61.2439C83.607 61.0851 83.7807 61.0014 83.9396 61.0569C84.0844 61.1075 84.2443 61.0422 84.3136 60.9054C87.1813 55.2411 90.9033 50.5129 95.1904 47.011C95.2997 46.9218 95.323 46.7639 95.2435 46.6474C95.1592 46.5237 95.1914 46.355 95.3153 46.271L95.9469 45.8432C96.0439 45.7775 96.1758 45.8029 96.2416 45.8998C96.3096 46 96.4476 46.0229 96.5451 45.9512C101.236 42.4962 106.521 40.4855 112.054 40.285C112.233 40.2785 112.377 40.1318 112.377 39.952C112.377 39.7693 112.525 39.6211 112.708 39.6211H113.287ZM112.964 52.4386C122.693 52.4386 131.505 59.8038 135.958 71.6624C136.024 71.8365 136.164 71.9721 136.341 72.0321L146.977 75.6519C147.43 75.806 147.879 75.4101 147.783 74.9417C143.479 53.7784 129.162 39 112.964 39C96.8608 39 82.5721 53.6891 78.2173 74.7181C78.1204 75.1849 78.5635 75.5824 79.0171 75.4356L89.6037 72.009C89.7824 71.9511 89.9249 71.815 89.991 71.6392C94.4752 59.7955 103.278 52.4386 112.964 52.4386Z" fill="#C9D0DB"/>
<path d="M113.287 39.6211C113.472 39.6211 113.621 39.7706 113.621 39.955C113.621 40.136 113.766 40.2838 113.947 40.2908C119.475 40.5056 124.751 42.5165 129.429 45.9645C129.533 46.0407 129.679 46.0165 129.751 45.9103C129.821 45.8075 129.961 45.7807 130.064 45.8504L130.393 46.0737L130.671 46.2626C130.802 46.3513 130.836 46.5289 130.747 46.6594C130.664 46.7823 130.688 46.9486 130.803 47.0428C135.075 50.5404 138.784 55.2536 141.644 60.9015C141.718 61.0472 141.888 61.1167 142.042 61.063C142.211 61.0042 142.396 61.0933 142.455 61.2623L142.685 61.9185C142.726 62.0357 142.664 62.1639 142.547 62.2047C142.421 62.2484 142.361 62.3914 142.417 62.5122C143.048 63.8716 143.633 65.2771 144.167 66.7269C145.337 69.9003 142.179 72.7065 138.978 71.6168C137.747 71.1978 136.763 70.2426 136.236 69.0537C135.652 67.7355 135.012 66.4798 134.324 65.2852C134.264 65.1816 134.139 65.1356 134.026 65.1752C133.896 65.2208 133.754 65.1523 133.709 65.0223L133.585 64.6698L133.408 64.1637C133.392 64.1195 133.415 64.071 133.46 64.0556C133.511 64.0376 133.533 63.9763 133.503 63.9303C131.197 60.2898 128.405 57.3311 125.285 55.1838C125.161 55.0984 124.991 55.1314 124.907 55.2561C124.822 55.3813 124.651 55.4138 124.526 55.3288L124.239 55.1333L123.931 54.9247C123.816 54.8469 123.786 54.6907 123.864 54.576C123.945 54.4568 123.909 54.2939 123.785 54.2211C120.709 52.4201 117.361 51.3922 113.884 51.2363C113.74 51.2299 113.621 51.3451 113.621 51.4887C113.621 51.6291 113.507 51.743 113.367 51.743H112.633C112.492 51.743 112.377 51.6282 112.377 51.4867C112.377 51.3423 112.258 51.2262 112.113 51.2322C108.641 51.3774 105.293 52.3984 102.214 54.1952C102.084 54.2712 102.047 54.4417 102.131 54.5664C102.213 54.6864 102.182 54.8498 102.061 54.9311L101.763 55.1333L101.484 55.3225C101.353 55.411 101.175 55.3769 101.087 55.2462C100.998 55.116 100.821 55.0814 100.692 55.1706C97.5775 57.3123 94.7834 60.2653 92.4707 63.8982C92.4353 63.9538 92.4611 64.0281 92.5234 64.0498C92.5769 64.0684 92.6052 64.127 92.5864 64.1805L92.4147 64.6698L92.2991 65.0004C92.2493 65.1426 92.0938 65.2175 91.9516 65.1679C91.8284 65.1248 91.6919 65.175 91.6267 65.2881C90.9479 66.4651 90.3144 67.701 89.7355 68.9981C89.1986 70.2009 88.208 71.1558 86.9548 71.5611L86.8511 71.5947C83.6761 72.6216 80.6466 69.8096 81.8035 66.6797C82.3375 65.2349 82.9225 63.8342 83.5526 62.479C83.6038 62.3688 83.549 62.2384 83.4343 62.1984C83.3274 62.1611 83.271 62.0441 83.3084 61.9373L83.5514 61.2439C83.607 61.0851 83.7807 61.0014 83.9396 61.0569C84.0844 61.1075 84.2443 61.0422 84.3136 60.9054C87.1813 55.2411 90.9033 50.5129 95.1904 47.011C95.2997 46.9218 95.323 46.7639 95.2435 46.6474C95.1592 46.5237 95.1914 46.355 95.3153 46.271L95.9469 45.8432C96.0439 45.7775 96.1758 45.8029 96.2416 45.8998C96.3096 46 96.4476 46.0229 96.5451 45.9512C101.236 42.4962 106.521 40.4855 112.054 40.285C112.233 40.2785 112.377 40.1318 112.377 39.952C112.377 39.7693 112.525 39.6211 112.708 39.6211H113.287Z" fill="#C9D0DB"/>
<path d="M112.32 40.5236V52.0327H113.567V39.867H112.32V40.5236Z" fill="#DADFE7"/>
<path d="M83.5392 61.2799L83.127 62.4584L83.5359 62.6014L91.6425 65.4321L92.1129 65.5967L92.319 65.0066L92.5251 64.4182L92.3057 64.3417L84.0811 61.4694L83.5392 61.2799Z" fill="#DADFE7"/>
<path d="M133.57 65.0063H133.568H133.57Z" fill="#D0D5DD"/>
<path d="M133.57 65.0063H133.568" stroke="white" stroke-width="0.657739" stroke-linecap="round" stroke-linejoin="round"/>
<path d="M133 64.5L133.206 65.0884L133.412 65.6785L133.843 65.5272L142.313 62.6148L142.762 62.4585L142.35 61.28L141.773 61.4811L133.181 64.4368L133 64.5Z" fill="#DADFE7"/>
<path d="M123.688 55.0846L124.205 55.4354L124.721 55.7861L125.028 55.3324L130.578 47.1493L130.888 46.6938L130.372 46.3431L129.855 45.9924L129.596 46.3747L123.979 54.6559L123.688 55.0846Z" fill="#DADFE7"/>
<path d="M96.0339 45.9924L95 46.6938L95.2942 47.126L100.848 55.3124L101.168 55.7861L101.685 55.4354L102.202 55.0846L101.898 54.6359L96.2782 46.3531L96.0339 45.9924Z" fill="#DADFE7"/>
<path d="M112.681 24.6743C119.051 24.6743 125.028 21.1346 127.604 17.3182C127.77 17.0722 127.967 16.8378 128.104 16.5802L127.5 15.5C127.39 15.7011 127.232 15.884 127.104 16.0802C124.653 19.855 118.988 23.195 112.681 23.195C106.574 23.195 102.08 19.977 99.5003 16.4198C99.2426 16.0641 98.98 15.7084 98.7822 15.3294L97.9561 16.7997C98.1838 17.2368 98.478 17.6491 98.7822 18.0563C101.475 21.6567 106.51 24.6743 112.681 24.6743Z" fill="#DADFE7"/>
<rect x="83.4619" y="89.4824" width="6" height="8" rx="2" fill="#6A67F8"/>
<rect x="83.4619" y="99.4824" width="6" height="8" rx="2" fill="#6A67F8"/>
<rect x="83.4619" y="109.482" width="6" height="8" rx="2" fill="#6A67F8"/>
<rect x="83.4619" y="119.482" width="6" height="8" rx="2" fill="#6A67F8"/>
<rect x="93.0928" y="89.4824" width="6" height="8" rx="2" fill="#6A67F8"/>
<rect x="93.0928" y="99.4824" width="6" height="8" rx="2" fill="#6A67F8"/>
<rect x="93.0928" y="109.482" width="6" height="8" rx="2" fill="#6A67F8"/>
<rect x="93.0928" y="119.482" width="6" height="8" rx="2" fill="#6A67F8"/>
<rect x="102.724" y="89.4824" width="6" height="8" rx="2" fill="#6A67F8"/>
<rect x="102.724" y="99.4824" width="6" height="8" rx="2" fill="#6A67F8"/>
<rect x="102.724" y="109.482" width="6" height="8" rx="2" fill="#6A67F8"/>
<rect x="102.724" y="119.482" width="6" height="8" rx="2" fill="#6A67F8"/>
<rect x="118.462" y="89.4824" width="6" height="8" rx="2" fill="#6A67F8"/>
<rect x="118.462" y="99.4824" width="6" height="8" rx="2" fill="#6A67F8"/>
<rect x="118.462" y="109.482" width="6" height="8" rx="2" fill="#6A67F8"/>
<rect x="118.462" y="119.482" width="6" height="8" rx="2" fill="#6A67F8"/>
<rect x="128.093" y="89.4824" width="6" height="8" rx="2" fill="#6A67F8"/>
<rect x="128.093" y="99.4824" width="6" height="8" rx="2" fill="#6A67F8"/>
<rect x="128.093" y="109.482" width="6" height="8" rx="2" fill="#6A67F8"/>
<rect x="128.093" y="119.482" width="6" height="8" rx="2" fill="#6A67F8"/>
<rect x="137.724" y="89.4824" width="6" height="8" rx="2" fill="#6A67F8"/>
<rect x="137.724" y="99.4824" width="6" height="8" rx="2" fill="#6A67F8"/>
<rect x="137.724" y="109.482" width="6" height="8" rx="2" fill="#6A67F8"/>
<rect x="137.724" y="119.482" width="6" height="8" rx="2" fill="#6A67F8"/>
<path d="M106.93 78.9533C106.45 78.9533 105.99 78.8833 105.55 78.7433C105.11 78.5966 104.743 78.3899 104.45 78.1233L104.81 77.3333C105.137 77.5866 105.47 77.7733 105.81 77.8933C106.15 78.0133 106.513 78.0733 106.9 78.0733C107.393 78.0733 107.767 77.9699 108.02 77.7633C108.28 77.5566 108.41 77.2599 108.41 76.8733C108.41 76.4933 108.28 76.2066 108.02 76.0133C107.767 75.8133 107.39 75.7133 106.89 75.7133H105.8V74.8733H106.81C107.237 74.8733 107.577 74.7666 107.83 74.5533C108.083 74.3333 108.21 74.0366 108.21 73.6633C108.21 73.3233 108.093 73.0633 107.86 72.8833C107.627 72.6966 107.293 72.6033 106.86 72.6033C106.127 72.6033 105.483 72.8599 104.93 73.3733L104.58 72.5833C104.853 72.3099 105.2 72.0999 105.62 71.9533C106.04 71.7999 106.48 71.7233 106.94 71.7233C107.647 71.7233 108.203 71.8866 108.61 72.2133C109.017 72.5333 109.22 72.9799 109.22 73.5533C109.22 73.9866 109.097 74.3566 108.85 74.6633C108.61 74.9699 108.28 75.1733 107.86 75.2733V75.1633C108.36 75.2433 108.743 75.4433 109.01 75.7633C109.283 76.0766 109.42 76.4699 109.42 76.9433C109.42 77.5699 109.197 78.0633 108.75 78.4233C108.31 78.7766 107.703 78.9533 106.93 78.9533ZM110.516 78.8633L112.806 76.0233V76.5033L110.636 73.8233H111.846L113.376 75.7933H113.016L114.546 73.8233H115.746L113.596 76.4933V76.0333L115.876 78.8633H114.666L113.016 76.7533H113.376L111.716 78.8633H110.516ZM119.336 78.9533C118.856 78.9533 118.396 78.8833 117.956 78.7433C117.516 78.5966 117.15 78.3899 116.856 78.1233L117.216 77.3333C117.543 77.5866 117.876 77.7733 118.216 77.8933C118.556 78.0133 118.92 78.0733 119.306 78.0733C119.8 78.0733 120.173 77.9699 120.426 77.7633C120.686 77.5566 120.816 77.2599 120.816 76.8733C120.816 76.4933 120.686 76.2066 120.426 76.0133C120.173 75.8133 119.796 75.7133 119.296 75.7133H118.206V74.8733H119.216C119.643 74.8733 119.983 74.7666 120.236 74.5533C120.49 74.3333 120.616 74.0366 120.616 73.6633C120.616 73.3233 120.5 73.0633 120.266 72.8833C120.033 72.6966 119.7 72.6033 119.266 72.6033C118.533 72.6033 117.89 72.8599 117.336 73.3733L116.986 72.5833C117.26 72.3099 117.606 72.0999 118.026 71.9533C118.446 71.7999 118.886 71.7233 119.346 71.7233C120.053 71.7233 120.61 71.8866 121.016 72.2133C121.423 72.5333 121.626 72.9799 121.626 73.5533C121.626 73.9866 121.503 74.3566 121.256 74.6633C121.016 74.9699 120.686 75.1733 120.266 75.2733V75.1633C120.766 75.2433 121.15 75.4433 121.416 75.7633C121.69 76.0766 121.826 76.4699 121.826 76.9433C121.826 77.5699 121.603 78.0633 121.156 78.4233C120.716 78.7766 120.11 78.9533 119.336 78.9533Z" fill="#23282D"/>
</g>
<rect x="0.5" y="0.5" width="231" height="149" rx="7.5" stroke="black" stroke-opacity="0.04"/>
<defs>
<clipPath id="clip0_19_44980">
<rect width="232" height="150" rx="8" fill="white"/>
</clipPath>
</defs>
</svg>
