<svg width="48" height="48" viewBox="0 0 48 48" fill="none" xmlns="http://www.w3.org/2000/svg">
<rect width="48" height="48" rx="24" fill="#EBF7FF"/>
<path d="M34.2125 17.656C33.4491 17.9937 32.6395 18.2155 31.8106 18.3141C32.6839 17.7913 33.3374 16.9689 33.6493 16C32.8287 16.4876 31.9305 16.8308 30.9938 17.0146C30.2031 16.1711 29.098 15.693 27.9418 15.6943C25.6326 15.6943 23.7597 17.5666 23.7597 19.8768C23.7597 20.2046 23.7973 20.5224 23.8676 20.8291C20.3905 20.654 17.3101 18.99 15.2468 16.4594C14.8753 17.0977 14.6801 17.8232 14.681 18.5617C14.681 20.0126 15.4196 21.2932 16.5415 22.043C15.8774 22.022 15.2279 21.8426 14.6472 21.5197C14.6465 21.5373 14.6465 21.5549 14.6465 21.5715C14.6465 23.5984 16.0882 25.2892 18.002 25.6731C17.6428 25.7703 17.2723 25.8194 16.9002 25.8191C16.63 25.8191 16.3677 25.7942 16.1128 25.7453C16.6453 27.4065 18.1889 28.6159 20.0196 28.6491C18.5381 29.8118 16.7087 30.4426 14.8254 30.4399C14.4921 30.4402 14.1591 30.4205 13.8281 30.3811C15.74 31.6102 17.9655 32.2625 20.2384 32.2601C27.9316 32.2601 32.138 25.8875 32.138 20.3611C32.138 20.1803 32.1336 19.9989 32.1256 19.82C32.9443 19.2284 33.651 18.4957 34.2125 17.656Z" fill="#1DA1F2"/>
</svg>
