<svg width="12" height="15" viewBox="0 0 12 15" fill="none" xmlns="http://www.w3.org/2000/svg">
<path d="M9.54222 8.09196C9.54222 8.15239 9.45157 9.93509 11.4156 10.8718C11.053 11.9897 9.78394 14.4674 8.30339 14.4674C7.45737 14.4674 6.97392 13.9235 6.00704 13.9235C5.00993 13.9235 4.46606 14.4674 3.71068 14.4674C2.26035 14.5278 0.870447 11.8084 0.477649 10.6905C0.175497 9.84445 0.0546359 9.02863 0.0546359 8.24304C0.0546359 5.55388 1.83733 4.25463 3.52939 4.22441C4.3452 4.22441 5.37252 4.7985 5.82575 4.7985C6.24876 4.7985 7.42715 4.10355 8.5149 4.1942C9.63286 4.28484 10.4789 4.70786 11.053 5.52367C10.0559 6.15819 9.54222 6.974 9.54222 8.09196ZM7.85017 3.13666C7.24586 3.83161 6.5207 4.22441 5.7351 4.16398C5.67467 3.34817 5.97682 2.59279 6.5207 1.98849C7.00414 1.44461 7.85017 0.991382 8.57533 0.930952C8.57533 1.26332 8.66598 2.16978 7.85017 3.13666Z" fill="#23282D"/>
</svg>
