<svg width="12" height="13" viewBox="0 0 12 13" fill="none" xmlns="http://www.w3.org/2000/svg">
<g clip-path="url(#clip0_181_79673)">
<path fill-rule="evenodd" clip-rule="evenodd" d="M7.8315 2.38665C6.94512 1.9917 5.95482 1.89386 5.00829 2.10771C4.06175 2.32157 3.20971 2.83567 2.57923 3.57333C1.94874 4.31099 1.5736 5.2327 1.50976 6.20099C1.44591 7.16928 1.69677 8.13226 2.22493 8.94633C2.7531 9.76039 3.53026 10.3819 4.44051 10.7182C5.35077 11.0545 6.34534 11.0875 7.27591 10.8124C8.20648 10.5373 9.02318 9.96869 9.6042 9.19147C10.1852 8.41425 10.4994 7.47004 10.5 6.49965V6.03993C10.5 5.76379 10.7239 5.53993 11 5.53993C11.2761 5.53993 11.5 5.76379 11.5 6.03993V6.49993C11.4993 7.68597 11.1153 8.84029 10.4051 9.79022C9.69499 10.7402 8.69681 11.4351 7.55945 11.7714C6.42209 12.1076 5.20649 12.0673 4.09396 11.6562C2.98142 11.2452 2.03156 10.4856 1.38603 9.49061C0.740496 8.49564 0.433885 7.31865 0.511922 6.13519C0.589959 4.95173 1.04846 3.8252 1.81905 2.92361C2.58964 2.02202 3.63103 1.39368 4.7879 1.1323C5.94478 0.870919 7.15515 0.990504 8.2385 1.47322C8.49074 1.58561 8.60411 1.8812 8.49172 2.13343C8.37933 2.38567 8.08374 2.49904 7.8315 2.38665ZM11.3534 2.1462C11.5487 2.34137 11.5489 2.65795 11.3537 2.85331L6.35373 7.85831C6.25998 7.95216 6.13278 8.0049 6.00013 8.00493C5.86748 8.00497 5.74025 7.95229 5.64645 7.85849L4.14645 6.35849C3.95119 6.16322 3.95119 5.84664 4.14645 5.65138C4.34171 5.45612 4.65829 5.45612 4.85356 5.65138L5.99983 6.79765L10.6463 2.14656C10.8414 1.9512 11.158 1.95104 11.3534 2.1462Z" fill="#9399A8"/>
</g>
<defs>
<clipPath id="clip0_181_79673">
<rect width="12" height="12" fill="white" transform="translate(0 0.5)"/>
</clipPath>
</defs>
</svg>
