<svg width="20" height="20" viewBox="0 0 20 20" fill="none" xmlns="http://www.w3.org/2000/svg">
<mask id="mask0_181_79623" style="mask-type:luminance" maskUnits="userSpaceOnUse" x="1" y="1" width="18" height="17">
<path fill-rule="evenodd" clip-rule="evenodd" d="M1.6665 1.6665H18.7269V17.9173H1.6665V1.6665Z" fill="white"/>
</mask>
<g mask="url(#mask0_181_79623)">
<path fill-rule="evenodd" clip-rule="evenodd" d="M3.18647 9.2691C4.3548 12.9041 8.97063 15.8433 10.1973 16.5708C11.4281 15.8358 16.0773 12.8641 17.2081 9.27244C17.9506 6.95077 17.2615 4.00994 14.5231 3.12744C13.1965 2.7016 11.649 2.96077 10.5806 3.78744C10.3573 3.9591 10.0473 3.96244 9.8223 3.79244C8.69064 2.9416 7.2123 2.69244 5.8648 3.12744C3.13063 4.0091 2.44397 6.94994 3.18647 9.2691ZM10.1981 17.9174C10.0948 17.9174 9.9923 17.8924 9.89897 17.8416C9.63813 17.6991 3.49397 14.3124 1.99647 9.65077C1.99563 9.65077 1.99563 9.64994 1.99563 9.64994C1.05563 6.71494 2.1023 3.0266 5.48147 1.93744C7.06813 1.4241 8.7973 1.64994 10.1956 2.53244C11.5506 1.67577 13.3506 1.4391 14.9056 1.93744C18.2881 3.02827 19.3381 6.71577 18.399 9.64994C16.9498 14.2583 10.7606 17.6958 10.4981 17.8399C10.4048 17.8916 10.3015 17.9174 10.1981 17.9174Z" fill="#6D7586"/>
</g>
<path fill-rule="evenodd" clip-rule="evenodd" d="M15.1277 8.02056C14.8052 8.02056 14.5319 7.77306 14.5052 7.4464C14.4502 6.7614 13.9919 6.18306 13.3394 5.97223C13.0102 5.86556 12.8302 5.51306 12.9361 5.18556C13.0436 4.85723 13.3927 4.6789 13.7227 4.78223C14.8586 5.14973 15.6544 6.15556 15.7519 7.34473C15.7794 7.6889 15.5236 7.99056 15.1794 8.01806C15.1619 8.01973 15.1452 8.02056 15.1277 8.02056Z" fill="#6D7586"/>
</svg>
