<svg width="12" height="13" viewBox="0 0 12 13" fill="none" xmlns="http://www.w3.org/2000/svg">
<mask id="mask0_181_79662" style="mask-type:luminance" maskUnits="userSpaceOnUse" x="1" y="1" width="10" height="11">
<path fill-rule="evenodd" clip-rule="evenodd" d="M1 1.5H11V11.5H1V1.5Z" fill="white"/>
</mask>
<g mask="url(#mask0_181_79662)">
<path fill-rule="evenodd" clip-rule="evenodd" d="M3.832 2.25C2.5675 2.25 1.75 3.1165 1.75 4.458V8.542C1.75 9.8835 2.5675 10.75 3.832 10.75H8.166C9.432 10.75 10.25 9.8835 10.25 8.542V4.458C10.25 3.1165 9.432 2.25 8.167 2.25H3.832ZM8.166 11.5H3.832C2.138 11.5 1 10.311 1 8.542V4.458C1 2.689 2.138 1.5 3.832 1.5H8.167C9.8615 1.5 11 2.689 11 4.458V8.542C11 10.311 9.8615 11.5 8.166 11.5Z" fill="#9399A8"/>
</g>
<path fill-rule="evenodd" clip-rule="evenodd" d="M5.99707 8.875C5.79007 8.875 5.62207 8.707 5.62207 8.5V6.5C5.62207 6.293 5.79007 6.125 5.99707 6.125C6.20407 6.125 6.37207 6.293 6.37207 6.5V8.5C6.37207 8.707 6.20407 8.875 5.99707 8.875Z" fill="#9399A8"/>
<path fill-rule="evenodd" clip-rule="evenodd" d="M5.99957 5.10205C5.72307 5.10205 5.49707 4.87855 5.49707 4.60205C5.49707 4.32555 5.71857 4.10205 5.99457 4.10205H5.99957C6.27607 4.10205 6.49957 4.32555 6.49957 4.60205C6.49957 4.87855 6.27607 5.10205 5.99957 5.10205Z" fill="#9399A8"/>
</svg>
