<svg width="20" height="20" viewBox="0 0 20 20" fill="none" xmlns="http://www.w3.org/2000/svg">
<path d="M9.88524 4.46155C10.0104 4.53396 10.1719 4.50011 10.2507 4.37894L10.5524 3.91539C10.6492 3.76665 10.6079 3.56709 10.4543 3.47821C10.3007 3.38933 10.1062 3.45253 10.0255 3.61058L9.77405 4.10315C9.70831 4.2319 9.76011 4.38914 9.88524 4.46155Z" fill="#FFD400"/>
<path d="M7.38506 3.79237C7.52965 3.79237 7.65278 3.68205 7.66023 3.53765L7.68876 2.98441C7.69787 2.80772 7.56198 2.65625 7.38506 2.65625C7.20814 2.65625 7.07224 2.80772 7.08135 2.98441L7.10988 3.53765C7.11733 3.68205 7.24047 3.79237 7.38506 3.79237Z" fill="#FFD400"/>
<path d="M4.88488 4.46155C5.01 4.38914 5.0618 4.2319 4.99607 4.10315L4.74459 3.61058C4.6639 3.45253 4.46942 3.38933 4.31583 3.47821C4.16224 3.56709 4.12096 3.76665 4.21775 3.91539L4.51939 4.37894C4.59824 4.50011 4.75975 4.53396 4.88488 4.46155Z" fill="#FFD400"/>
<path d="M3.0553 6.29113C3.12771 6.166 3.09386 6.00449 2.97269 5.92564L2.50914 5.624C2.3604 5.52721 2.16084 5.56849 2.07196 5.72208C1.98308 5.87567 2.04628 6.07015 2.20433 6.15084L2.6969 6.40232C2.82565 6.46805 2.98289 6.41625 3.0553 6.29113Z" fill="#FFD400"/>
<path d="M2.1314 8.51613C2.2758 8.52358 2.38612 8.64672 2.38612 8.79131C2.38612 8.9359 2.2758 9.05903 2.1314 9.06648L1.57816 9.09501C1.40147 9.10412 1.25 8.96823 1.25 8.79131C1.25 8.61439 1.40147 8.47849 1.57816 8.4876L2.1314 8.51613Z" fill="#FFD400"/>
<path d="M10.2338 5.70013C9.48482 5.00951 8.4842 4.58766 7.38506 4.58766C5.06345 4.58766 3.18141 6.4697 3.18141 8.79131C3.18141 8.96097 3.19146 9.12828 3.211 9.29268C3.89038 8.84843 4.70239 8.59016 5.57471 8.59016C5.92847 8.59016 6.27281 8.63274 6.60265 8.71319C7.33282 7.26325 8.64543 6.15619 10.2338 5.70013Z" fill="#FFD400"/>
<path d="M6.70756 9.79092L7.1591 9.95471L7.34087 9.5101C8.06915 7.72873 9.81911 6.4751 11.8607 6.4751C14.5563 6.4751 16.7414 8.66028 16.7414 11.3558C16.7414 11.4748 16.7372 11.5928 16.7288 11.7095L16.7042 12.0546L17.0184 12.1993C17.7464 12.5345 18.2501 13.2698 18.2501 14.1217C18.2501 15.2897 17.3032 16.2366 16.1351 16.2366H5.57477C3.74017 16.2366 2.25293 14.7494 2.25293 12.9148C2.25293 11.0802 3.74017 9.59291 5.57477 9.59291C5.97347 9.59291 6.3547 9.66294 6.70756 9.79092Z" fill="white" stroke="#DFE5F1"/>
</svg>
