<svg width="18" height="17" viewBox="0 0 18 17" fill="none" xmlns="http://www.w3.org/2000/svg">
<mask id="mask0_508_16810" style="mask-type:luminance" maskUnits="userSpaceOnUse" x="0" y="0" width="18" height="17">
<path fill-rule="evenodd" clip-rule="evenodd" d="M0.666016 0.666595H17.7264V16.9174H0.666016V0.666595Z" fill="white"/>
</mask>
<g mask="url(#mask0_508_16810)">
<path fill-rule="evenodd" clip-rule="evenodd" d="M2.18598 8.26919C3.35431 11.9042 7.97015 14.8434 9.19681 15.5709C10.4276 14.8359 15.0768 11.8642 16.2076 8.27253C16.9501 5.95086 16.261 3.01003 13.5226 2.12753C12.196 1.70169 10.6485 1.96086 9.58015 2.78753C9.35681 2.95919 9.04681 2.96253 8.82181 2.79253C7.69015 1.94169 6.21181 1.69253 4.86431 2.12753C2.13015 3.00919 1.44348 5.95003 2.18598 8.26919ZM9.19765 16.9175C9.09431 16.9175 8.99181 16.8925 8.89848 16.8417C8.63765 16.6992 2.49348 13.3125 0.99598 8.65086C0.995146 8.65086 0.995146 8.65003 0.995146 8.65003C0.0551461 5.71503 1.10181 2.02669 4.48098 0.937527C6.06765 0.424194 7.79681 0.650027 9.19515 1.53253C10.5501 0.675861 12.3501 0.439194 13.9051 0.937527C17.2876 2.02836 18.3376 5.71586 17.3985 8.65003C15.9493 13.2584 9.76015 16.6959 9.49765 16.84C9.40431 16.8917 9.30098 16.9175 9.19765 16.9175Z" fill="#81899A"/>
</g>
<path fill-rule="evenodd" clip-rule="evenodd" d="M14.1282 7.02075C13.8057 7.02075 13.5324 6.77325 13.5057 6.44658C13.4507 5.76158 12.9924 5.18325 12.3399 4.97241C12.0107 4.86575 11.8307 4.51325 11.9366 4.18575C12.0441 3.85741 12.3932 3.67908 12.7232 3.78241C13.8591 4.14991 14.6549 5.15575 14.7524 6.34491C14.7799 6.68908 14.5241 6.99075 14.1799 7.01825C14.1624 7.01991 14.1457 7.02075 14.1282 7.02075Z" fill="#81899A"/>
</svg>
