<svg width="25" height="20" viewBox="0 0 25 20" fill="none" xmlns="http://www.w3.org/2000/svg">
<path fill-rule="evenodd" clip-rule="evenodd" d="M17.6 0.000366211H7.19831C2.29441 0.000366211 0.500244 1.45813 0.500244 5.44254V13.9C0.500244 17.8844 2.29441 19.3422 7.19831 19.3422H17.6C22.5039 19.3422 24.3005 17.8844 24.3005 13.9V5.44254C24.3056 1.45813 22.5114 0.000366211 17.6 0.000366211Z" fill="#F03856"/>
<path d="M5.21377 9.672H5.84524V12.2027H5.21377V11.1746H3.78796V12.2027H3.15649V9.672H3.78796V10.69H5.21377V9.672ZM8.77204 11.1196C8.77204 11.5268 8.52146 11.7507 8.0654 11.7507C7.60934 11.7507 7.35375 11.5268 7.35375 11.0972V9.672H6.72228V11.1175C6.72228 11.8281 7.20841 12.2353 8.05538 12.2353C8.90234 12.2353 9.40351 11.8281 9.40351 11.0951V9.672H8.77204V11.1196ZM16.069 11.4107L15.3624 9.672H14.8436L14.142 11.4128L13.4529 9.672H12.7814L13.8664 12.2027H14.3901L15.0942 10.5414L15.8009 12.2027H16.3296L17.4146 9.672H16.7581L16.069 11.4107ZM18.5447 11.1114H19.6949V10.6533H18.5447V10.1362H20.2136V9.672H17.9233V12.1966H20.2738V11.7406H18.5447V11.1114ZM21.0255 12.1966H21.6495V9.672H21.0255V12.1966ZM10.6514 11.6734L10.3682 12.1986H9.72425L11.0849 9.672H11.6412L13.0069 12.1986H12.3554L12.0872 11.6754L10.6514 11.6734ZM10.887 11.2173H11.8367L11.3606 10.3133L10.887 11.2173Z" fill="white"/>
<path d="M12.4029 6.45289C11.3524 6.45235 10.3451 6.11305 9.60225 5.50951C8.85943 4.90597 8.44183 4.08754 8.44116 3.23401H8.99996C8.99996 3.9673 9.35848 4.67055 9.99665 5.18906C10.6348 5.70757 11.5004 5.99887 12.4029 5.99887C13.3054 5.99887 14.1709 5.70757 14.8091 5.18906C15.4473 4.67055 15.8058 3.9673 15.8058 3.23401H16.3646C16.3639 4.08754 15.9463 4.90597 15.2035 5.50951C14.4607 6.11305 13.4534 6.45235 12.4029 6.45289Z" fill="white"/>
</svg>
