<svg width="29" height="20" viewBox="0 0 29 20" fill="none" xmlns="http://www.w3.org/2000/svg">
<path d="M3.37236 19.3856L4.60073 13.3229H6.59942L5.378 19.3856H3.37236ZM9.40315 17.4013H10.6731L10.347 15.1767L9.40315 17.4013ZM6.59942 19.3856L9.62522 13.3229H11.5962L12.8384 19.3856H10.9854L10.8744 18.6647H8.90347L8.59118 19.3856H6.59942ZM14.6775 19.3856L15.3645 14.8265H13.6157L13.9141 13.2954H19.2856L18.9872 14.8265H17.3216L16.6484 19.3856H14.6775ZM21.3953 17.4013H22.6653L22.3391 15.1767L21.3953 17.4013ZM18.5985 19.3856L21.6174 13.3229H23.5883L24.8306 19.3856H22.9637L22.8735 18.6647H20.9026L20.5903 19.3856H18.5985ZM29.1958 6.47052H19.7922C19.4452 8.17331 18.2515 9.59459 15.8711 10.5764C16.1418 11.3866 17.0648 12.135 18.0225 12.135H23.1234C23.9006 12.135 24.5183 11.4896 24.7681 10.9678H19.584C19.2648 10.9129 19.2509 10.6588 19.5701 10.6314H24.664C25.3233 10.6314 25.9201 10.0752 26.2671 9.471H20.3335C20.0351 9.42294 20.0351 9.17576 20.3335 9.1277H26.3157C26.9195 9.1277 27.4677 8.43422 27.6968 7.96733H21.1316C20.8054 7.92613 20.8054 7.62402 21.1316 7.61716H27.8147C28.3352 7.61716 28.8418 7.05414 29.1958 6.47052ZM-0.916504 6.47052H8.48708C8.82713 8.17331 10.0277 9.59459 12.4012 10.5764C12.1305 11.3866 11.2075 12.135 10.2498 12.135H5.15592C4.37865 12.135 3.761 11.4896 3.51116 10.9678H8.69527C9.00757 10.9129 9.02839 10.6588 8.70915 10.6314H3.60832C2.94903 10.6314 2.35219 10.0752 2.01214 9.471H7.9527C8.25112 9.42294 8.25112 9.17576 7.9527 9.1277H1.9705C1.36673 9.1277 0.818474 8.43422 0.589457 7.96733H7.15461C7.48079 7.92613 7.48079 7.62402 7.15461 7.61716H0.471479C-0.0559548 7.61716 -0.562568 7.05414 -0.916504 6.47052ZM11.0895 1.36215C11.4365 1.6574 11.8252 1.91831 12.2416 2.08309C12.5955 1.39649 13.0882 0.806002 13.6573 0.28418C12.7204 0.407769 11.8391 0.75794 11.0895 1.36215ZM9.42397 4.74713H11.5198C11.5684 3.89574 11.7488 3.14734 12.0889 2.37834C11.6239 2.17235 11.2214 1.92517 10.8328 1.5956C9.96528 2.45386 9.48642 3.5593 9.42397 4.74713ZM13.9765 2.80403V4.74713H11.8807C11.8946 3.985 12.075 3.20227 12.4012 2.49506C12.9009 2.67358 13.4422 2.7903 13.9765 2.80403ZM17.1897 1.36215C16.8497 1.6574 16.4472 1.91831 16.0377 2.08309C15.6629 1.38275 15.198 0.819734 14.615 0.291046C15.5588 0.407769 16.4402 0.75794 17.1897 1.36215ZM18.8484 4.74713H16.7595C16.7317 3.90947 16.5374 3.12674 16.2043 2.37834C16.6484 2.17235 17.0717 1.91144 17.4396 1.5956C18.3418 2.48819 18.8067 3.58677 18.8484 4.74713ZM14.3166 2.80403V4.74713H16.3986C16.3986 3.9644 16.2043 3.216 15.8781 2.49506C15.3784 2.67358 14.844 2.7903 14.3166 2.80403ZM11.0895 8.47542C11.4365 8.20764 11.8391 7.9124 12.2416 7.76821C12.6163 8.46168 13.0813 9.03157 13.6573 9.54653C12.7204 9.42294 11.8252 9.07277 11.0895 8.47542ZM9.42397 5.08357H11.5198C11.5684 5.94183 11.7488 6.6971 12.0889 7.47297C11.6239 7.67895 11.2214 7.92613 10.8328 8.24884C9.97916 7.39744 9.48642 6.292 9.42397 5.08357ZM13.9765 7.03354V5.08357H11.8807C11.8946 5.86631 12.075 6.64217 12.4012 7.33565C12.9009 7.15713 13.4422 7.04727 13.9765 7.03354ZM17.1897 8.47542C16.8636 8.19391 16.4472 7.933 16.0377 7.76821C15.6629 8.46168 15.198 9.03157 14.615 9.54653C15.5588 9.42294 16.4402 9.07277 17.1897 8.47542ZM18.8484 5.08357H16.7595C16.7317 5.94183 16.5443 6.70397 16.2043 7.47297C16.6484 7.67895 17.0509 7.92613 17.4396 8.24884C18.3001 7.39744 18.8067 6.26454 18.8484 5.08357ZM14.3166 7.03354V5.08357H16.3986C16.3986 5.86631 16.2043 6.62844 15.8781 7.33565C15.3923 7.15713 14.8302 7.04727 14.3166 7.03354ZM13.9765 0.483296C13.4075 0.936458 12.9009 1.55441 12.5677 2.19982C13.0188 2.35087 13.4977 2.47446 13.9765 2.47446V0.483296ZM14.3166 0.483296C14.8718 0.936458 15.3784 1.53381 15.7115 2.19982C15.2604 2.3646 14.7816 2.47446 14.3166 2.47446V0.483296ZM13.9765 9.35428C13.4075 8.90798 12.9009 8.29003 12.5677 7.63089C13.0188 7.47297 13.4977 7.38371 13.9765 7.38371V9.35428ZM14.3166 9.36801C14.8718 8.90798 15.3784 8.29003 15.7115 7.63089C15.2604 7.4867 14.7816 7.38371 14.3166 7.38371V9.36801Z" fill="#81899A"/>
</svg>
