<svg width="18" height="18" viewBox="0 0 18 18" fill="none" xmlns="http://www.w3.org/2000/svg">
<path d="M9.85672 0.66748C10.7945 0.66903 11.2698 0.673989 11.6805 0.686214L11.8422 0.691506C12.029 0.698147 12.2134 0.706481 12.4356 0.716897C13.3224 0.757864 13.9273 0.898147 14.4585 1.1044C15.0078 1.3162 15.4717 1.60231 15.9349 2.06551C16.3974 2.5287 16.6835 2.99398 16.896 3.5419C17.1015 4.07245 17.2419 4.67801 17.2835 5.56481C17.2935 5.78703 17.3015 5.97136 17.308 6.15824L17.3133 6.31997C17.3255 6.7306 17.331 7.20591 17.3328 8.14375L17.3335 8.76516C17.3335 8.84108 17.3335 8.91941 17.3335 9.00025L17.3335 9.23533L17.333 9.85675C17.3314 10.7946 17.3265 11.2698 17.3142 11.6805L17.3089 11.8422C17.3023 12.0291 17.294 12.2134 17.2835 12.4357C17.2425 13.3224 17.1015 13.9273 16.896 14.4586C16.6842 15.0078 16.3974 15.4717 15.9349 15.9349C15.4717 16.3974 15.0057 16.6836 14.4585 16.8961C13.9273 17.1016 13.3224 17.2419 12.4356 17.2836C12.2134 17.2935 12.029 17.3015 11.8422 17.3081L11.6805 17.3133C11.2698 17.3255 10.7945 17.3311 9.85672 17.3328L9.2353 17.3335C9.15938 17.3336 9.08105 17.3336 9.00022 17.3336L8.76513 17.3335L8.14372 17.333C7.20588 17.3314 6.73057 17.3265 6.31994 17.3142L6.15821 17.3089C5.97133 17.3023 5.787 17.294 5.56478 17.2836C4.67797 17.2426 4.07381 17.1016 3.54187 16.8961C2.99325 16.6842 2.52867 16.3974 2.06547 15.9349C1.60228 15.4717 1.31687 15.0057 1.10437 14.4586C0.898117 13.9273 0.758533 13.3224 0.716867 12.4357C0.706967 12.2134 0.698892 12.0291 0.69235 11.8422L0.687108 11.6805C0.674917 11.2698 0.669358 10.7946 0.667558 9.85675L0.66745 8.14375C0.669 7.20591 0.673958 6.7306 0.686183 6.31997L0.691475 6.15824C0.698117 5.97136 0.70645 5.78703 0.716867 5.56481C0.757833 4.67731 0.898117 4.07315 1.10437 3.5419C1.31617 2.99328 1.60228 2.5287 2.06547 2.06551C2.52867 1.60231 2.99395 1.3169 3.54187 1.1044C4.07312 0.898147 4.67728 0.758564 5.56478 0.716897C5.787 0.706997 5.97133 0.698922 6.15821 0.692381L6.31994 0.687139C6.73057 0.674947 7.20588 0.669389 8.14372 0.667589L9.85672 0.66748ZM9.00022 4.83356C6.69778 4.83356 4.83353 6.69984 4.83353 9.00025C4.83353 11.3027 6.69981 13.1669 9.00022 13.1669C11.3026 13.1669 13.1669 11.3006 13.1669 9.00025C13.1669 6.69781 11.3005 4.83356 9.00022 4.83356ZM9.00022 6.50023C10.381 6.50023 11.5002 7.61908 11.5002 9.00025C11.5002 10.381 10.3813 11.5002 9.00022 11.5002C7.61947 11.5002 6.5002 10.3813 6.5002 9.00025C6.5002 7.6195 7.61905 6.50023 9.00022 6.50023ZM13.3752 3.58356C12.8008 3.58356 12.3335 4.05015 12.3335 4.62452C12.3335 5.19889 12.8001 5.6662 13.3752 5.6662C13.9495 5.6662 14.4169 5.19961 14.4169 4.62452C14.4169 4.05015 13.9488 3.58284 13.3752 3.58356Z" fill="url(#paint0_linear_13_687)"/>
<defs>
<linearGradient id="paint0_linear_13_687" x1="17.3333" y1="0.666667" x2="0.666636" y2="17.3333" gradientUnits="userSpaceOnUse">
<stop stop-color="#AE2FBA"/>
<stop offset="0.16924" stop-color="#8F35C7"/>
<stop offset="0.465732" stop-color="#EB4165"/>
<stop offset="0.78563" stop-color="#FE6840"/>
<stop offset="1" stop-color="#FFD155"/>
</linearGradient>
</defs>
</svg>
