<svg width="21" height="20" viewBox="0 0 21 20" fill="none" xmlns="http://www.w3.org/2000/svg">
<g clip-path="url(#clip0_48_1697)">
<path d="M8.83333 19.1667C8.83333 19.6275 8.46083 20 8 20H4.66667C2.36917 20 0.5 18.1308 0.5 15.8333V4.16667C0.5 1.86917 2.36917 0 4.66667 0H11.3333C13.6308 0 15.5 1.86917 15.5 4.16667V5.83333C15.5 6.29417 15.1275 6.66667 14.6667 6.66667C14.2058 6.66667 13.8333 6.29417 13.8333 5.83333V4.16667C13.8333 2.78833 12.7117 1.66667 11.3333 1.66667H4.66667C3.28833 1.66667 2.16667 2.78833 2.16667 4.16667V15.8333C2.16667 17.2117 3.28833 18.3333 4.66667 18.3333H8C8.46083 18.3333 8.83333 18.7058 8.83333 19.1667ZM12.1667 5C12.1667 4.53917 11.7942 4.16667 11.3333 4.16667H4.66667C4.20583 4.16667 3.83333 4.53917 3.83333 5C3.83333 5.46083 4.20583 5.83333 4.66667 5.83333H11.3333C11.7942 5.83333 12.1667 5.46083 12.1667 5ZM8.83333 9.16667C8.83333 8.70583 8.46083 8.33333 8 8.33333H4.66667C4.20583 8.33333 3.83333 8.70583 3.83333 9.16667C3.83333 9.6275 4.20583 10 4.66667 10H8C8.46083 10 8.83333 9.6275 8.83333 9.16667ZM4.66667 12.5C4.20583 12.5 3.83333 12.8725 3.83333 13.3333C3.83333 13.7942 4.20583 14.1667 4.66667 14.1667H6.33333C6.79417 14.1667 7.16667 13.7942 7.16667 13.3333C7.16667 12.8725 6.79417 12.5 6.33333 12.5H4.66667ZM20.5 14.1667C20.5 17.3825 17.8825 20 14.6667 20C11.4508 20 8.83333 17.3825 8.83333 14.1667C8.83333 10.9508 11.4508 8.33333 14.6667 8.33333C17.8825 8.33333 20.5 10.9508 20.5 14.1667ZM18.8333 14.1667C18.8333 11.8692 16.9642 10 14.6667 10C12.3692 10 10.5 11.8692 10.5 14.1667C10.5 16.4642 12.3692 18.3333 14.6667 18.3333C16.9642 18.3333 18.8333 16.4642 18.8333 14.1667ZM16.1733 13.1325L14.3208 14.9108C14.2008 15.0283 14.005 15.0308 13.8858 14.9125L12.9433 13.9892C12.6133 13.6658 12.0867 13.6708 11.765 14.0008C11.4425 14.33 11.4475 14.8567 11.7767 15.1792L12.72 16.1033C13.1033 16.4775 13.605 16.665 14.1058 16.665C14.6067 16.665 15.1067 16.4775 15.4833 16.1058L17.3275 14.3358C17.6592 14.0167 17.67 13.4892 17.3517 13.1575C17.0325 12.8242 16.5042 12.815 16.1733 13.1333V13.1325Z" fill="#B5BBC9"/>
</g>
<defs>
<clipPath id="clip0_48_1697">
<rect width="20" height="20" fill="white" transform="translate(0.5)"/>
</clipPath>
</defs>
</svg>
