<svg width="14" height="14" viewBox="0 0 14 14" fill="none" xmlns="http://www.w3.org/2000/svg">
<g clip-path="url(#clip0_19_48194)">
<path d="M11.9582 11.0836H2.0415C1.72067 11.0836 1.1665 11.3752 1.1665 11.9586C1.1665 12.5419 1.72067 12.8336 2.0415 12.8336H11.9582C12.279 12.8336 12.8332 12.5419 12.8332 11.9586C12.8332 11.3752 12.279 11.0836 11.9582 11.0836ZM13.4165 5.54189C13.1362 4.70108 12.2673 4.88274 11.8007 5.00524L9.23814 5.69051C8.90531 5.77952 8.5501 5.69093 8.29804 5.45604L4.93484 2.32191C4.77734 2.17024 4.54984 2.11774 4.33984 2.17608C3.94317 2.28691 3.7565 2.74191 3.96067 3.09774L5.31574 5.44547C5.64447 6.01502 5.34341 6.74137 4.70816 6.91137L3.55279 7.22055C3.24782 7.30217 2.92223 7.23497 2.67448 7.0393L2.15234 6.62691C2.0065 6.51608 1.81984 6.47524 1.639 6.52191L1.4465 6.57441C1.25984 6.62108 1.17234 6.83691 1.2715 7.00024L2.65984 9.19941C2.794 9.42691 3.06234 9.53774 3.31317 9.47358L12.5415 7.00024C13.0082 6.87191 13.6968 6.3827 13.4165 5.54189Z" fill="#00B8D7"/>
</g>
<defs>
<clipPath id="clip0_19_48194">
<rect width="14" height="14" fill="white"/>
</clipPath>
</defs>
</svg>
