<svg width="21" height="20" viewBox="0 0 21 20" fill="none" xmlns="http://www.w3.org/2000/svg">
<path d="M9.40749 20.0001C9.05196 20 8.70158 19.9152 8.3853 19.7529C8.06902 19.5905 7.79594 19.3552 7.58862 19.0663C7.38131 18.7775 7.24572 18.4435 7.19306 18.0919C7.14041 17.7403 7.17221 17.3812 7.28582 17.0443L8.90249 12.5001H5.63166L4.73166 13.8718C4.50448 14.2189 4.1943 14.5039 3.82922 14.7009C3.46414 14.8979 3.05567 15.0008 2.64082 15.0001C2.29815 15.0001 1.96055 14.9173 1.65668 14.759C1.35281 14.6006 1.09164 14.3712 0.895341 14.0903C0.69904 13.8095 0.573403 13.4854 0.529094 13.1456C0.484785 12.8058 0.523112 12.4603 0.640821 12.1385L1.41665 10.0001L0.632488 7.86681C0.514497 7.54555 0.475689 7.20058 0.519353 6.86113C0.563017 6.52168 0.687866 6.19776 0.883321 5.91681C1.11553 5.62013 1.41587 5.38384 1.75886 5.22797C2.10186 5.0721 2.47738 5.00126 2.85359 5.02147C3.2298 5.04167 3.59558 5.15231 3.91991 5.34401C4.24424 5.53571 4.51755 5.80281 4.71665 6.12265L5.62916 7.50015H8.90249L7.28916 2.96931C7.17366 2.63075 7.14056 2.26954 7.19259 1.91563C7.24462 1.56172 7.38028 1.22531 7.58832 0.934314C7.83615 0.619564 8.15874 0.371782 8.52676 0.213513C8.89478 0.0552441 9.29653 -0.00848742 9.69545 0.0281177C10.0944 0.0647228 10.4778 0.200502 10.8109 0.423102C11.144 0.645701 11.4161 0.948053 11.6025 1.30265L15.15 7.50015H17.9108C18.5135 7.49257 19.0997 7.69707 19.5669 8.0779C20.0341 8.45872 20.3526 8.99164 20.4667 9.58348C20.5273 9.9421 20.5089 10.3096 20.4129 10.6604C20.3168 11.0112 20.1454 11.3368 19.9105 11.6145C19.6756 11.8922 19.383 12.1153 19.053 12.2683C18.7231 12.4213 18.3637 12.5004 18 12.5001H15.15L11.5942 18.7118C11.3786 19.1028 11.0619 19.4287 10.6772 19.6554C10.2925 19.882 9.85398 20.0011 9.40749 20.0001ZM5.18165 10.8335H10.0833C10.2164 10.8346 10.3472 10.8674 10.4651 10.9291C10.5829 10.9909 10.6844 11.0798 10.7611 11.1885C10.8378 11.2972 10.8875 11.4225 10.9062 11.5543C10.9248 11.686 10.9118 11.8203 10.8683 11.946L8.85999 17.5901C8.83315 17.6748 8.82672 17.7646 8.8412 17.8522C8.85568 17.9398 8.89067 18.0228 8.94332 18.0943C9.02737 18.1776 9.12994 18.2398 9.24263 18.2759C9.35532 18.3119 9.47495 18.3208 9.59173 18.3018C9.70852 18.2828 9.81914 18.2364 9.91457 18.1664C10.01 18.0965 10.0875 18.005 10.1408 17.8993L13.9433 11.2501C14.0166 11.1232 14.1221 11.0179 14.2491 10.9447C14.3761 10.8716 14.5201 10.8332 14.6667 10.8335H18C18.1218 10.8335 18.2421 10.8069 18.3525 10.7554C18.4629 10.7039 18.5607 10.6289 18.639 10.5355C18.7172 10.4422 18.7741 10.3328 18.8055 10.2151C18.8369 10.0974 18.8421 9.97425 18.8208 9.85431C18.7715 9.65248 18.654 9.47385 18.4882 9.3486C18.3224 9.22335 18.1185 9.15914 17.9108 9.16681H14.6667C14.5201 9.1671 14.3761 9.12874 14.2491 9.05558C14.1221 8.98243 14.0166 8.87707 13.9433 8.75015L10.1475 2.11598C10.0969 2.00687 10.0206 1.91165 9.92516 1.83844C9.82973 1.76522 9.71799 1.71621 9.5995 1.69557C9.48101 1.67493 9.35928 1.68329 9.24472 1.71994C9.13016 1.75658 9.02618 1.82041 8.94166 1.90598C8.88835 1.97978 8.8535 2.06528 8.84001 2.15531C8.82653 2.24535 8.83481 2.3373 8.86415 2.42348L10.8642 8.05431C10.9076 8.1797 10.9206 8.31361 10.9022 8.44501C10.8837 8.57641 10.8344 8.70156 10.7581 8.81017C10.6819 8.91878 10.581 9.00774 10.4637 9.06974C10.3464 9.13175 10.216 9.16501 10.0833 9.16681H5.18165C5.04399 9.16684 4.90846 9.13275 4.78718 9.0676C4.6659 9.00245 4.56265 8.90828 4.48665 8.79348L3.32582 7.04348C3.13582 6.69265 2.46415 6.51265 2.25082 6.86848C2.20725 6.92927 2.17948 6.99994 2.17003 7.07414C2.16057 7.14833 2.16972 7.22371 2.19665 7.29348L3.08999 9.71515C3.15821 9.90074 3.15821 10.1046 3.08999 10.2901L2.20165 12.7151C2.17689 12.7849 2.1692 12.8596 2.17924 12.933C2.18927 13.0063 2.21674 13.0762 2.25934 13.1367C2.30194 13.1973 2.35843 13.2468 2.42408 13.281C2.48972 13.3152 2.56262 13.3332 2.63665 13.3335C2.77505 13.3336 2.91129 13.2992 3.03306 13.2334C3.15483 13.1676 3.25831 13.0726 3.33415 12.9568L4.48082 11.2068C4.55736 11.0912 4.66153 10.9965 4.78391 10.9313C4.90629 10.8661 5.043 10.8325 5.18165 10.8335Z" fill="#00B8D7"/>
</svg>
