<svg width="52" height="52" viewBox="0 0 52 52" fill="none" xmlns="http://www.w3.org/2000/svg">
<g clip-path="url(#clip0_1_4324)">
<path d="M3.71404 24.3854C4.20986 21.8355 4.45778 20.5605 5.04942 19.5661C5.83827 18.2403 7.06372 17.2302 8.51572 16.7089C9.60472 16.3179 10.9036 16.3179 13.5013 16.3179L35.8386 16.3179C38.4363 16.3179 39.7351 16.3179 40.8241 16.7089C42.2761 17.2302 43.5016 18.2403 44.2904 19.5661C44.8821 20.5605 45.13 21.8355 45.6258 24.3854C46.3283 27.9984 46.6796 29.8048 46.3132 31.2479C45.8246 33.1721 44.5016 34.7771 42.7061 35.6239C41.3595 36.2591 39.5192 36.2591 35.8386 36.2591H13.5013C9.8207 36.2591 7.9804 36.2591 6.63377 35.6239C4.83828 34.7771 3.51527 33.1721 3.02669 31.2479C2.66027 29.8048 3.01152 27.9984 3.71404 24.3854Z" fill="url(#paint0_linear_1_4324)"/>
<g filter="url(#filter0_b_1_4324)">
<circle cx="24.9565" cy="12.3074" r="12.5888" fill="#B5DBFF" fill-opacity="0.6"/>
<circle cx="24.9565" cy="12.3074" r="12.4365" stroke="url(#paint1_linear_1_4324)" stroke-width="0.304504"/>
</g>
<g filter="url(#filter1_b_1_4324)">
<path d="M4.01563 41.1412C4.01563 46.8537 8.64654 51.4846 14.3591 51.4846L35.046 51.4846C40.7585 51.4846 45.3894 46.8537 45.3894 41.1412C45.3894 33.5245 39.2108 27.3499 31.5941 27.3499C26.6792 27.3499 22.7258 27.3499 17.8109 27.3499C10.1942 27.3499 4.01563 33.5245 4.01563 41.1412Z" fill="#B5DBFF" fill-opacity="0.6"/>
<path d="M4.16788 41.1412C4.16788 46.7696 8.73063 51.3324 14.3591 51.3324L35.046 51.3324C40.6744 51.3324 45.2372 46.7696 45.2372 41.1412C45.2372 33.6086 39.1268 27.5022 31.5941 27.5022L31.5653 27.5022L31.5365 27.5022L31.5078 27.5022L31.4791 27.5022L31.4504 27.5022L31.4217 27.5022L31.393 27.5022L31.3644 27.5022L31.3358 27.5022L31.3072 27.5022L31.2786 27.5022L31.2501 27.5022L31.2216 27.5022L31.193 27.5022L31.1646 27.5022L31.1361 27.5022L31.1076 27.5022L31.0792 27.5022L31.0508 27.5022L31.0224 27.5022L30.9941 27.5022L30.9657 27.5022L30.9374 27.5022L30.9091 27.5022L30.8808 27.5022L30.8525 27.5022L30.8243 27.5022L30.7961 27.5022L30.7679 27.5022L30.7397 27.5022L30.7115 27.5022L30.6834 27.5022L30.6552 27.5022L30.6271 27.5022L30.599 27.5022L30.571 27.5022L30.5429 27.5022L30.5149 27.5022L30.4869 27.5022L30.4589 27.5022L30.4309 27.5022L30.4029 27.5022L30.375 27.5022L30.3471 27.5022L30.3192 27.5022L30.2913 27.5022L30.2634 27.5022L30.2356 27.5022L30.2077 27.5022L30.1799 27.5022L30.1521 27.5022L30.1243 27.5022L30.0966 27.5022L30.0688 27.5022L30.0411 27.5022L30.0134 27.5022L29.9857 27.5022L29.958 27.5022L29.9304 27.5022L29.9027 27.5022L29.8751 27.5022L29.8475 27.5022L29.8199 27.5022L29.7923 27.5022L29.7648 27.5022L29.7372 27.5022L29.7097 27.5022L29.6822 27.5022L29.6547 27.5022L29.6272 27.5022L29.5998 27.5022L29.5723 27.5022L29.5449 27.5022L29.5175 27.5022L29.4901 27.5022L29.4627 27.5022L29.4353 27.5022L29.408 27.5022L29.3807 27.5022L29.3533 27.5022L29.326 27.5022L29.2987 27.5022L29.2715 27.5022L29.2442 27.5022L29.217 27.5022L29.1897 27.5022L29.1625 27.5022L29.1353 27.5022L29.1081 27.5022L29.081 27.5022L29.0538 27.5022L29.0267 27.5022L28.9995 27.5022L28.9724 27.5022L28.9453 27.5022L28.9182 27.5022L28.8911 27.5022L28.8641 27.5022L28.837 27.5022L28.81 27.5022L28.783 27.5022L28.756 27.5022L28.729 27.5022L28.702 27.5022L28.675 27.5022L28.6481 27.5022L28.6211 27.5022L28.5942 27.5022L28.5673 27.5022L28.5404 27.5022L28.5135 27.5022L28.4866 27.5022L28.4597 27.5022L28.4329 27.5022L28.4061 27.5022L28.3792 27.5022L28.3524 27.5022L28.3256 27.5022L28.2988 27.5022L28.272 27.5022L28.2452 27.5022L28.2185 27.5022L28.1917 27.5022L28.165 27.5022L28.1383 27.5022L28.1116 27.5022L28.0849 27.5022L28.0582 27.5022L28.0315 27.5022L28.0048 27.5022L27.9782 27.5022L27.9515 27.5022L27.9249 27.5022L27.8983 27.5022L27.8716 27.5022L27.845 27.5022L27.8184 27.5022L27.7919 27.5022L27.7653 27.5022L27.7387 27.5022L27.7122 27.5022L27.6856 27.5022L27.6591 27.5022L27.6326 27.5022L27.606 27.5022L27.5795 27.5022L27.553 27.5022L27.5266 27.5022L27.5001 27.5022L27.4736 27.5022L27.4471 27.5022L27.4207 27.5022L27.3943 27.5022L27.3678 27.5022L27.3414 27.5022L27.315 27.5022L27.2886 27.5022L27.2622 27.5022L27.2358 27.5022L27.2094 27.5022L27.183 27.5022L27.1567 27.5022L27.1303 27.5022L27.104 27.5022L27.0776 27.5022L27.0513 27.5022L27.025 27.5022L26.9986 27.5022L26.9723 27.5022L26.946 27.5022L26.9197 27.5022L26.8934 27.5022L26.8672 27.5022L26.8409 27.5022L26.8146 27.5022L26.7884 27.5022L26.7621 27.5022L26.7359 27.5022L26.7096 27.5022L26.6834 27.5022L26.6572 27.5022L26.6309 27.5022L26.6047 27.5022L26.5785 27.5022L26.5523 27.5022L26.5261 27.5022L26.4999 27.5022L26.4738 27.5022L26.4476 27.5022L26.4214 27.5022L26.3952 27.5022L26.3691 27.5022L26.3429 27.5022L26.3168 27.5022L26.2906 27.5022L26.2645 27.5022L26.2384 27.5022L26.2122 27.5022L26.1861 27.5022L26.16 27.5022L26.1339 27.5022L26.1078 27.5022L26.0817 27.5022L26.0556 27.5022L26.0295 27.5022L26.0034 27.5022L25.9773 27.5022L25.9512 27.5022L25.9251 27.5022L25.8991 27.5022L25.873 27.5022L25.8469 27.5022L25.8209 27.5022L25.7948 27.5022L25.7687 27.5022L25.7427 27.5022L25.7166 27.5022L25.6906 27.5022L25.6646 27.5022L25.6385 27.5022L25.6125 27.5022L25.5864 27.5022L25.5604 27.5022L25.5344 27.5022L25.5084 27.5022L25.4823 27.5022L25.4563 27.5022L25.4303 27.5022L25.4043 27.5022L25.3783 27.5022L25.3523 27.5022L25.3263 27.5022L25.3003 27.5022L25.2743 27.5022L25.2483 27.5022L25.2223 27.5022L25.1963 27.5022L25.1703 27.5022L25.1443 27.5022L25.1183 27.5022L25.0923 27.5022L25.0663 27.5022L25.0403 27.5022L25.0143 27.5022L24.9883 27.5022L24.9623 27.5022L24.9364 27.5022L24.9104 27.5022L24.8844 27.5022L24.8584 27.5022L24.8324 27.5022L24.8064 27.5022L24.7805 27.5022L24.7545 27.5022L24.7285 27.5022L24.7025 27.5022L24.6765 27.5022L24.6506 27.5022L24.6246 27.5022L24.5986 27.5022L24.5726 27.5022L24.5466 27.5022L24.5206 27.5022L24.4947 27.5022L24.4687 27.5022L24.4427 27.5022L24.4167 27.5022L24.3907 27.5022L24.3647 27.5022L24.3387 27.5022L24.3128 27.5022L24.2868 27.5022L24.2608 27.5022L24.2348 27.5022L24.2088 27.5022L24.1828 27.5022L24.1568 27.5022L24.1308 27.5022L24.1048 27.5022L24.0788 27.5022L24.0528 27.5022L24.0268 27.5022L24.0007 27.5022L23.9747 27.5022L23.9487 27.5022L23.9227 27.5022L23.8967 27.5022L23.8706 27.5022L23.8446 27.5022L23.8186 27.5022L23.7926 27.5022L23.7665 27.5022L23.7405 27.5022L23.7144 27.5022L23.6884 27.5022L23.6624 27.5022L23.6363 27.5022L23.6102 27.5022L23.5842 27.5022L23.5581 27.5022L23.5321 27.5022L23.506 27.5022L23.4799 27.5022L23.4538 27.5022L23.4278 27.5022L23.4017 27.5022L23.3756 27.5022L23.3495 27.5022L23.3234 27.5022L23.2973 27.5022L23.2712 27.5022L23.245 27.5022L23.2189 27.5022L23.1928 27.5022L23.1667 27.5022L23.1405 27.5022L23.1144 27.5022L23.0883 27.5022L23.0621 27.5022L23.036 27.5022L23.0098 27.5022L22.9836 27.5022L22.9575 27.5022L22.9313 27.5022L22.9051 27.5022L22.8789 27.5022L22.8527 27.5022L22.8265 27.5022L22.8003 27.5022L22.7741 27.5022L22.7479 27.5022L22.7216 27.5022L22.6954 27.5022L22.6692 27.5022L22.6429 27.5022L22.6167 27.5022L22.5904 27.5022L22.5642 27.5022L22.5379 27.5022L22.5116 27.5022L22.4853 27.5022L22.459 27.5022L22.4327 27.5022L22.4064 27.5022L22.3801 27.5022L22.3538 27.5022L22.3274 27.5022L22.3011 27.5022L22.2747 27.5022L22.2484 27.5022L22.222 27.5022L22.1956 27.5022L22.1693 27.5022L22.1429 27.5022L22.1165 27.5022L22.0901 27.5022L22.0636 27.5022L22.0372 27.5022L22.0108 27.5022L21.9843 27.5022L21.9579 27.5022L21.9314 27.5022L21.905 27.5022L21.8785 27.5022L21.852 27.5022L21.8255 27.5022L21.799 27.5022L21.7725 27.5022L21.746 27.5022L21.7194 27.5022L21.6929 27.5022L21.6663 27.5022L21.6398 27.5022L21.6132 27.5022L21.5866 27.5022L21.56 27.5022L21.5334 27.5022L21.5068 27.5022L21.4802 27.5022L21.4535 27.5022L21.4269 27.5022L21.4002 27.5022L21.3735 27.5022L21.3469 27.5022L21.3202 27.5022L21.2935 27.5022L21.2668 27.5022L21.24 27.5022L21.2133 27.5022L21.1866 27.5022L21.1598 27.5022L21.133 27.5022L21.1062 27.5022L21.0794 27.5022L21.0526 27.5022L21.0258 27.5022L20.999 27.5022L20.9721 27.5022L20.9453 27.5022L20.9184 27.5022L20.8916 27.5022L20.8647 27.5022L20.8378 27.5022L20.8108 27.5022L20.7839 27.5022L20.757 27.5022L20.73 27.5022L20.703 27.5022L20.6761 27.5022L20.6491 27.5022L20.6221 27.5022L20.595 27.5022L20.568 27.5022L20.541 27.5022L20.5139 27.5022L20.4868 27.5022L20.4597 27.5022L20.4326 27.5022L20.4055 27.5022L20.3784 27.5022L20.3512 27.5022L20.3241 27.5022L20.2969 27.5022L20.2697 27.5022L20.2425 27.5022L20.2153 27.5022L20.1881 27.5022L20.1608 27.5022L20.1336 27.5022L20.1063 27.5022L20.079 27.5022L20.0517 27.5022L20.0244 27.5022L19.997 27.5022L19.9697 27.5022L19.9423 27.5022L19.9149 27.5022L19.8875 27.5022L19.8601 27.5022L19.8327 27.5022L19.8053 27.5022L19.7778 27.5022L19.7503 27.5022L19.7228 27.5022L19.6953 27.5022L19.6678 27.5022L19.6403 27.5022L19.6127 27.5022L19.5851 27.5022L19.5575 27.5022L19.5299 27.5022L19.5023 27.5022L19.4747 27.5022L19.447 27.5022L19.4193 27.5022L19.3916 27.5022L19.3639 27.5022L19.3362 27.5022L19.3085 27.5022L19.2807 27.5022L19.2529 27.5022L19.2251 27.5022L19.1973 27.5022L19.1695 27.5022L19.1416 27.5022L19.1138 27.5022L19.0859 27.5022L19.058 27.5022L19.0301 27.5022L19.0021 27.5022L18.9742 27.5022L18.9462 27.5022L18.9182 27.5022L18.8902 27.5022L18.8621 27.5022L18.8341 27.5022L18.806 27.5022L18.7779 27.5022L18.7498 27.5022L18.7217 27.5022L18.6935 27.5022L18.6654 27.5022L18.6372 27.5022L18.609 27.5022L18.5808 27.5022L18.5525 27.5022L18.5242 27.5022L18.496 27.5022L18.4677 27.5022L18.4393 27.5022L18.411 27.5022L18.3826 27.5022L18.3542 27.5022L18.3258 27.5022L18.2974 27.5022L18.269 27.5022L18.2405 27.5022L18.212 27.5022L18.1835 27.5022L18.155 27.5022L18.1264 27.5022L18.0978 27.5022L18.0692 27.5022L18.0406 27.5022L18.012 27.5022L17.9833 27.5022L17.9547 27.5022L17.926 27.5022L17.8972 27.5022L17.8685 27.5022L17.8397 27.5022L17.8109 27.5022C10.2783 27.5022 4.16788 33.6086 4.16788 41.1412Z" stroke="url(#paint2_linear_1_4324)" stroke-width="0.304504"/>
</g>
</g>
<defs>
<filter id="filter0_b_1_4324" x="6.07328" y="-6.57575" width="37.7665" height="37.7664" filterUnits="userSpaceOnUse" color-interpolation-filters="sRGB">
<feFlood flood-opacity="0" result="BackgroundImageFix"/>
<feGaussianBlur in="BackgroundImageFix" stdDeviation="3.1472"/>
<feComposite in2="SourceAlpha" operator="in" result="effect1_backgroundBlur_1_4324"/>
<feBlend mode="normal" in="SourceGraphic" in2="effect1_backgroundBlur_1_4324" result="shape"/>
</filter>
<filter id="filter1_b_1_4324" x="-2.88001" y="20.4543" width="55.1653" height="37.926" filterUnits="userSpaceOnUse" color-interpolation-filters="sRGB">
<feFlood flood-opacity="0" result="BackgroundImageFix"/>
<feGaussianBlur in="BackgroundImageFix" stdDeviation="3.44782"/>
<feComposite in2="SourceAlpha" operator="in" result="effect1_backgroundBlur_1_4324"/>
<feBlend mode="normal" in="SourceGraphic" in2="effect1_backgroundBlur_1_4324" result="shape"/>
</filter>
<linearGradient id="paint0_linear_1_4324" x1="14.8272" y1="20.6801" x2="39.1136" y2="40.1678" gradientUnits="userSpaceOnUse">
<stop stop-color="#97C3FA"/>
<stop offset="1" stop-color="#5D8FF3"/>
</linearGradient>
<linearGradient id="paint1_linear_1_4324" x1="12.3677" y1="4.43944" x2="24.4647" y2="24.3073" gradientUnits="userSpaceOnUse">
<stop stop-color="white"/>
<stop offset="0.99715" stop-color="white" stop-opacity="0"/>
</linearGradient>
<linearGradient id="paint2_linear_1_4324" x1="5.95533" y1="29.4958" x2="46.7519" y2="48.3513" gradientUnits="userSpaceOnUse">
<stop stop-color="white"/>
<stop offset="1" stop-color="white" stop-opacity="0"/>
</linearGradient>
<clipPath id="clip0_1_4324">
<rect width="52" height="52" fill="white"/>
</clipPath>
</defs>
</svg>
