<svg width="17" height="16" viewBox="0 0 17 16" fill="none" xmlns="http://www.w3.org/2000/svg">
<path d="M13.8885 9.77797C13.3845 9.77838 12.8881 9.90143 12.4422 10.1365C11.9963 10.3716 11.6144 10.7116 11.3292 11.1273L6.99 9.16798C7.2982 8.42375 7.29939 7.5878 6.99333 6.84269L11.3266 4.8734C11.7491 5.48456 12.3768 5.92402 13.0956 6.11207C13.8144 6.30012 14.5769 6.22431 15.2446 5.89838C15.9123 5.57245 16.4411 5.018 16.735 4.33559C17.029 3.65318 17.0686 2.88802 16.8467 2.1789C16.6248 1.46979 16.1561 0.863679 15.5256 0.470526C14.8952 0.0773727 14.1446 -0.0767851 13.4102 0.036015C12.6758 0.148815 12.0062 0.521102 11.5227 1.08535C11.0393 1.64959 10.7741 2.36842 10.7753 3.11144C10.7781 3.2873 10.7959 3.4626 10.8286 3.63543L6.22201 5.72872C5.77958 5.3142 5.2257 5.03795 4.62843 4.93391C4.03115 4.82986 3.41649 4.90254 2.85995 5.14303C2.30342 5.38352 1.82925 5.78134 1.4957 6.28761C1.16216 6.79389 0.983761 7.38657 0.982429 7.99284C0.981097 8.59911 1.15689 9.19256 1.48821 9.7003C1.81952 10.208 2.29194 10.6079 2.84741 10.8509C3.40288 11.0938 4.01722 11.1692 4.61495 11.0678C5.21268 10.9663 5.76776 10.6925 6.21201 10.28L10.8306 12.3653C10.7985 12.5379 10.7809 12.713 10.7779 12.8886C10.7778 13.504 10.9602 14.1056 11.302 14.6174C11.6438 15.1291 12.1297 15.528 12.6982 15.7636C13.2668 15.9991 13.8924 16.0608 14.496 15.9408C15.0996 15.8207 15.654 15.5244 16.0892 15.0892C16.5243 14.6541 16.8207 14.0996 16.9407 13.4961C17.0607 12.8925 16.9991 12.2668 16.7635 11.6983C16.5279 11.1298 16.129 10.6439 15.6173 10.302C15.1056 9.96021 14.5039 9.77784 13.8885 9.77797ZM13.8885 1.33347C14.2402 1.33334 14.584 1.4375 14.8765 1.63279C15.169 1.82807 15.3969 2.10571 15.5316 2.43058C15.6663 2.75545 15.7016 3.11296 15.6331 3.45789C15.5645 3.80283 15.3953 4.11969 15.1466 4.36841C14.898 4.61713 14.5812 4.78653 14.2363 4.85519C13.8914 4.92385 13.5339 4.88867 13.2089 4.75412C12.884 4.61957 12.6063 4.39169 12.4109 4.09929C12.2155 3.80689 12.1112 3.46311 12.1112 3.11144C12.1116 2.64011 12.2989 2.18819 12.6321 1.85485C12.9653 1.52151 13.4172 1.334 13.8885 1.33347ZM4.11139 9.77797C3.75971 9.7781 3.41589 9.67394 3.12342 9.47865C2.83095 9.28337 2.60296 9.00573 2.46829 8.68086C2.33362 8.35599 2.29831 7.99848 2.36684 7.65355C2.43537 7.30861 2.60465 6.99175 2.85327 6.74303C3.1019 6.49431 3.4187 6.32491 3.76361 6.25625C4.10852 6.18759 4.46604 6.22277 4.79096 6.35732C5.11588 6.49187 5.3936 6.71975 5.589 7.01215C5.78439 7.30455 5.88868 7.64833 5.88868 8C5.88816 8.47127 5.70076 8.9231 5.36758 9.2564C5.03441 9.58969 4.58265 9.77726 4.11139 9.77797ZM13.8885 14.6665C13.5369 14.6665 13.1931 14.5623 12.9007 14.3669C12.6084 14.1715 12.3805 13.8939 12.2459 13.569C12.1113 13.2441 12.0761 12.8866 12.1447 12.5417C12.2133 12.1968 12.3827 11.88 12.6313 11.6314C12.88 11.3827 13.1968 11.2134 13.5417 11.1448C13.8865 11.0762 14.244 11.1114 14.5689 11.2459C14.8938 11.3805 15.1715 11.6084 15.3668 11.9008C15.5622 12.1932 15.6665 12.5369 15.6665 12.8886C15.6661 13.36 15.4787 13.812 15.1453 14.1454C14.812 14.4788 14.36 14.6662 13.8885 14.6665Z" fill="#81899A"/>
</svg>
