<svg width="15" height="18" viewBox="0 0 15 18" fill="none" xmlns="http://www.w3.org/2000/svg">
<path fill-rule="evenodd" clip-rule="evenodd" d="M14.7684 5.28872C14.6684 5.42721 14.4388 5.65054 14.4388 5.65054C13.6262 6.51754 11.6051 7.8234 10.5797 8.24276C10.5797 8.25154 9.97003 8.50023 9.68003 8.50998L9.64142 8.50998C9.19702 8.50998 8.78132 8.26129 8.56852 7.86144C8.48079 7.6966 8.3992 7.29567 8.35983 7.10223C8.3468 7.03817 8.33839 6.99686 8.33593 6.99444C8.24883 6.42294 8.19142 5.54619 8.19142 4.58361C8.19142 3.57325 8.24883 2.65846 8.35572 2.09574C8.35572 2.08599 8.46163 1.57203 8.52992 1.40038C8.63583 1.15267 8.82982 0.942989 9.07132 0.809379C9.26433 0.713804 9.46822 0.666992 9.68003 0.666992C9.90272 0.675769 10.3184 0.819132 10.4827 0.885449C11.5665 1.30481 13.6361 2.67699 14.4289 3.51571C14.5173 3.60283 14.61 3.70198 14.6744 3.77097C14.7088 3.80778 14.7352 3.83601 14.7486 3.84924C14.9129 4.05892 15 4.31639 15 4.59336C15 4.8401 14.9228 5.08782 14.7684 5.28872ZM9.03196 14.1906C8.59547 14.1906 8.24211 13.8424 8.24211 13.4123C8.24211 12.9823 8.59547 12.6341 9.03196 12.6341L12.8476 12.4195C13.4038 12.4195 13.8542 12.8642 13.8542 13.4123C13.8542 13.9604 13.4038 14.4042 12.8476 14.4042L9.03196 14.1906ZM6.4705 16.6C6.3636 16.8477 6.17059 17.0573 5.92909 17.191C5.73608 17.2865 5.53218 17.3333 5.31938 17.3333C5.09767 17.3246 4.68097 17.1812 4.51666 17.1139C3.43384 16.6955 1.3642 15.3224 0.570397 14.4846C0.484107 14.399 0.393344 14.3017 0.329131 14.2329L0.329094 14.2329L0.329074 14.2328L0.329031 14.2328L0.328883 14.2326C0.293045 14.1942 0.265511 14.1647 0.251686 14.1511C0.0873827 13.9404 0.000281719 13.6839 0.000281731 13.4079C0.000281742 13.1593 0.0774845 12.9115 0.232881 12.7116C0.331859 12.5731 0.561489 12.3498 0.561489 12.3498C1.37311 11.4818 3.39524 10.1769 4.42066 9.75757C4.42066 9.74782 5.02937 9.50011 5.31938 9.49035L5.35798 9.49035C5.80338 9.49035 6.21909 9.73807 6.4319 10.1389C6.51872 10.3034 6.60053 10.7031 6.64021 10.8969C6.65346 10.9617 6.66202 11.0035 6.6645 11.0059C6.7516 11.5774 6.809 12.4541 6.809 13.4167C6.809 14.4271 6.7516 15.3419 6.6447 15.9046C6.6447 15.9134 6.53879 16.4283 6.4705 16.6ZM6.75805 4.58819C6.75805 4.15811 6.4047 3.80994 5.96822 3.80994L2.15268 3.59538C1.59644 3.59538 1.1461 4.0401 1.1461 4.58819C1.1461 5.13629 1.59644 5.58003 2.15268 5.58003L5.96822 5.36645C6.4047 5.36645 6.75805 5.01828 6.75805 4.58819Z" fill="#81899A"/>
</svg>
