<svg width="21" height="20" viewBox="0 0 21 20" fill="none" xmlns="http://www.w3.org/2000/svg">
<g clip-path="url(#clip0_48_1691)">
<path d="M20.0116 18.4624C19.8841 18.3816 17.5716 16.9424 14.1491 16.2291C14.4975 14.7282 15.1633 11.0924 14.3825 7.7749C14.2525 7.22407 14.11 6.6824 13.955 6.15323C15.3225 6.94907 16.74 7.30823 17.7375 7.46823C17.8225 7.4824 17.9066 7.48823 17.9908 7.48823C18.4891 7.48823 18.9625 7.25323 19.2666 6.84323C19.6275 6.3574 19.6866 5.71823 19.4225 5.17407C18.9008 4.0999 17.9525 2.59907 16.3983 1.54573C13.9033 -0.143432 10.815 -0.0267654 10.3825 -9.87323e-05C9.9533 -0.00843207 6.91247 -0.00259876 4.43247 1.67657C2.91497 2.70407 1.96663 4.1199 1.4383 5.12657C1.15246 5.67073 1.19913 6.31907 1.55996 6.81823C1.91663 7.3124 2.5108 7.55823 3.10663 7.46073C3.8408 7.33907 4.80663 7.1099 5.8108 6.67407C5.8308 7.53323 5.97747 8.33573 6.1408 8.88157C6.2858 9.3649 6.63913 9.7424 7.11163 9.91823C7.29413 9.98657 7.48247 10.0199 7.66997 10.0199C7.9683 10.0199 8.26413 9.9349 8.5258 9.76823C9.1058 9.39823 9.79497 8.7849 10.3966 8.03407C10.3983 8.13573 10.3991 8.23573 10.3991 8.33407C10.3991 11.5374 8.86747 14.8607 8.31247 15.9582C3.99413 16.4666 0.934132 18.3699 0.786632 18.4632C0.397465 18.7091 0.281632 19.2241 0.527465 19.6124C0.685798 19.8632 0.956632 20.0007 1.23246 20.0007C1.38497 20.0007 1.5383 19.9591 1.67663 19.8716C1.70996 19.8507 6.23163 17.5007 10.3983 17.5007C15.2883 17.5007 19.0833 19.8491 19.1208 19.8724C19.5091 20.1166 20.0241 19.9999 20.27 19.6116C20.515 19.2224 20.3991 18.7091 20.01 18.4632L20.0116 18.4624ZM15.465 2.92573C16.6666 3.7399 17.4325 4.91907 17.8741 5.80073C16.9216 5.6349 15.5816 5.26657 14.3708 4.44657C13.1775 3.63823 12.3316 2.53823 11.8108 1.7074C12.8316 1.81157 14.2583 2.10823 15.4641 2.9249L15.465 2.92573ZM2.97247 5.7924C3.42163 4.96407 4.18913 3.85407 5.36747 3.05657C6.55247 2.25407 7.93747 1.91323 8.94997 1.7699C8.42663 2.5924 7.5933 3.65823 6.42913 4.44657C5.23497 5.2549 3.91413 5.62407 2.9733 5.7924H2.97247ZM7.71163 8.30907C7.52913 7.6449 7.4058 6.60907 7.5233 5.71573C8.70413 4.8774 9.57497 3.8324 10.17 2.95323C10.2566 3.47573 10.2933 4.06657 10.2041 4.6599C10.2008 4.6774 10.1983 4.69573 10.1958 4.71407C10.1558 4.96073 10.0941 5.2074 10.0041 5.44907C9.52913 6.73323 8.3808 7.85407 7.7108 8.3099L7.71163 8.30907ZM10.2225 15.8349C10.9633 14.2007 12.0666 11.2757 12.0666 8.33323C12.0666 7.31407 11.9883 6.12657 11.9008 5.2099C12.2308 6.14573 12.5191 7.1324 12.76 8.15573C13.475 11.1941 12.8 14.6766 12.4983 15.9591C11.8266 15.8799 11.1258 15.8332 10.3991 15.8332C10.34 15.8332 10.2816 15.8332 10.2225 15.8349Z" fill="#B5BBC9"/>
</g>
<defs>
<clipPath id="clip0_48_1691">
<rect width="20" height="20" fill="white" transform="translate(0.399902)"/>
</clipPath>
</defs>
</svg>
