<svg width="21" height="20" viewBox="0 0 21 20" fill="none" xmlns="http://www.w3.org/2000/svg">
<g clip-path="url(#clip0_48_1685)">
<path d="M20.8 15.8333C20.8019 14.073 20.4535 12.33 19.775 10.7058L19.5075 10.0641C19.1922 9.30391 18.6584 8.65442 17.9736 8.19793C17.2888 7.74145 16.4839 7.49853 15.6609 7.49994H12.6059C11.7829 7.49853 10.978 7.74145 10.2932 8.19793C9.6084 8.65442 9.07452 9.30391 8.75922 10.0641L8.49255 10.7049C7.74255 12.9066 6.24255 17.0183 9.13338 18.1899V18.3333C9.13338 18.7753 9.30898 19.1992 9.62154 19.5118C9.9341 19.8244 10.358 19.9999 10.8 19.9999C11.2421 19.9999 11.666 19.8244 11.9786 19.5118C12.2911 19.1992 12.4667 18.7753 12.4667 18.3333H15.8C15.8 18.7753 15.9756 19.1992 16.2882 19.5118C16.6008 19.8244 17.0247 19.9999 17.4667 19.9999C17.9087 19.9999 18.3327 19.8244 18.6452 19.5118C18.9578 19.1992 19.1334 18.7753 19.1334 18.3333V18.1899C19.6207 18.0176 20.0427 17.6985 20.3412 17.2764C20.6397 16.8544 20.8 16.3502 20.8 15.8333ZM10.3 10.7049C10.4892 10.2493 10.8093 9.85992 11.2197 9.58611C11.6301 9.31229 12.1125 9.16631 12.6059 9.16661H15.6609C16.1547 9.16581 16.6376 9.31157 17.0485 9.58541C17.4595 9.85926 17.7799 10.2489 17.9692 10.7049L18.2359 11.3466C18.2809 11.4524 18.3192 11.5591 18.3642 11.6666H9.90338C9.94422 11.5591 9.98672 11.4524 10.0309 11.3458L10.3 10.7049ZM18.3 16.6666H9.96672C8.50255 16.5249 9.32505 14.2758 9.40338 13.3333H10.8V14.1666C10.8 14.3876 10.8878 14.5996 11.0441 14.7559C11.2004 14.9121 11.4124 14.9999 11.6334 14.9999C11.8544 14.9999 12.0664 14.9121 12.2226 14.7559C12.3789 14.5996 12.4667 14.3876 12.4667 14.1666V13.3333H15.8V14.1666C15.8 14.3876 15.8878 14.5996 16.0441 14.7559C16.2004 14.9121 16.4124 14.9999 16.6334 14.9999C16.8544 14.9999 17.0664 14.9121 17.2226 14.7559C17.3789 14.5996 17.4667 14.3876 17.4667 14.1666V13.3333H18.8634C18.9409 14.2741 19.7642 16.5258 18.3 16.6666ZM6.21672 9.16661H4.13338V5.22078C4.13338 5.14661 4.13338 5.07328 4.14088 4.99994H8.30005V5.83328C8.30005 6.05429 8.38785 6.26625 8.54413 6.42253C8.70041 6.57881 8.91237 6.66661 9.13338 6.66661C9.3544 6.66661 9.56636 6.57881 9.72264 6.42253C9.87892 6.26625 9.96672 6.05429 9.96672 5.83328V4.99994H14.1259C14.13 5.07328 14.1334 5.14661 14.1334 5.22078V5.83328C14.1334 6.05429 14.2212 6.26625 14.3775 6.42253C14.5337 6.57881 14.7457 6.66661 14.9667 6.66661C15.1877 6.66661 15.3997 6.57881 15.556 6.42253C15.7123 6.26625 15.8 6.05429 15.8 5.83328V5.22078C15.8078 4.1351 15.4587 3.07695 14.8065 2.20898C14.1542 1.34102 13.235 0.71129 12.19 0.416612C10.1899 -0.137568 8.07682 -0.137568 6.07672 0.416612C5.03177 0.71129 4.11253 1.34102 3.46031 2.20898C2.8081 3.07695 2.45901 4.1351 2.46672 5.22078V7.49994C2.02469 7.49994 1.60076 7.67554 1.2882 7.9881C0.975644 8.30066 0.800049 8.72458 0.800049 9.16661C0.800049 9.60864 0.975644 10.0326 1.2882 10.3451C1.60076 10.6577 2.02469 10.8333 2.46672 10.8333V13.3333C2.46735 13.8502 2.62786 14.3542 2.92625 14.7763C3.22464 15.1984 3.64629 15.5178 4.13338 15.6908V16.6666C4.13338 16.8876 4.22118 17.0996 4.37746 17.2559C4.53374 17.4121 4.7457 17.4999 4.96672 17.4999C5.18773 17.4999 5.39969 17.4121 5.55597 17.2559C5.71225 17.0996 5.80005 16.8876 5.80005 16.6666V14.9999C5.80005 14.7789 5.71225 14.567 5.55597 14.4107C5.39969 14.2544 5.18773 14.1666 4.96672 14.1666C4.7457 14.1666 4.53374 14.0788 4.37746 13.9225C4.22118 13.7663 4.13338 13.5543 4.13338 13.3333V10.8333H6.21672C6.43773 10.8333 6.64969 10.7455 6.80597 10.5892C6.96225 10.4329 7.05005 10.221 7.05005 9.99994C7.05005 9.77893 6.96225 9.56697 6.80597 9.41069C6.64969 9.25441 6.43773 9.16661 6.21672 9.16661ZM6.51255 2.02661C8.22715 1.54912 10.0396 1.54912 11.7542 2.02661C12.4941 2.23054 13.1355 2.69448 13.5609 3.33328H4.70588C5.13122 2.69448 5.77269 2.23054 6.51255 2.02661Z" fill="#B5BBC9"/>
</g>
<defs>
<clipPath id="clip0_48_1685">
<rect width="20" height="20" fill="white" transform="translate(0.800049)"/>
</clipPath>
</defs>
</svg>
