<svg width="52" height="52" viewBox="0 0 52 52" fill="none" xmlns="http://www.w3.org/2000/svg">
<path d="M37.1614 9.94296C38.3901 12.0711 38.3901 14.9283 38.3901 20.6425C38.3901 26.3568 38.3901 29.214 37.1614 31.3421C36.3565 32.7363 35.1988 33.8941 33.8046 34.699C31.6764 35.9277 28.8193 35.9277 23.105 35.9277H16.9909C16.0311 35.9277 15.1519 35.9277 14.3431 35.9219C13.422 35.9152 12.9614 35.9119 12.5509 36.023C12.1404 36.134 11.7596 36.3601 10.9979 36.8122L6.30465 39.598C5.6614 39.9799 4.85623 39.4725 4.92309 38.7274L5.03262 37.5069C5.14259 36.2816 5.19757 35.6689 5.08452 35.1826C4.97148 34.6964 4.32797 33.6382 3.04095 31.5218C3.00481 31.4623 2.96933 31.4025 2.9345 31.3421C1.70581 29.214 1.70581 26.3568 1.70581 20.6425C1.70581 14.9283 1.70581 12.0711 2.9345 9.94296C3.73943 8.54878 4.89717 7.39105 6.29134 6.58612C8.4195 5.35742 11.2766 5.35742 16.9909 5.35742L23.105 5.35742C28.8193 5.35742 31.6764 5.35742 33.8046 6.58611C35.1988 7.39104 36.3565 8.54878 37.1614 9.94296Z" fill="url(#paint0_linear_1_4331)"/>
<g filter="url(#filter0_b_1_4331)">
<path d="M15.1625 19.1143C13.9338 21.2425 13.9338 24.0996 13.9338 29.8139C13.9338 35.5282 13.9338 38.3854 15.1625 40.5135C15.9675 41.9077 17.1252 43.0654 18.5194 43.8704C20.6475 45.0991 23.5047 45.0991 29.219 45.0991H35.333C37.131 45.0991 38.6461 45.0991 39.9446 45.0608L46.0096 48.7427C46.6526 49.1331 47.4662 48.626 47.399 47.8768L46.9829 43.2399C47.9559 42.5031 48.7754 41.5771 49.3894 40.5135C50.6181 38.3854 50.6181 35.5282 50.6181 29.8139C50.6181 24.0996 50.6181 21.2425 49.3894 19.1143C48.5845 17.7202 47.4268 16.5624 46.0326 15.7575C43.9045 14.5288 41.0473 14.5288 35.333 14.5288L29.219 14.5288C23.5047 14.5288 20.6475 14.5288 18.5194 15.7575C17.1252 16.5624 15.9675 17.7202 15.1625 19.1143Z" fill="#B5DBFF" fill-opacity="0.6"/>
<path d="M39.9817 44.9998L39.9636 44.9889L39.9425 44.9895C38.6453 45.0277 37.1313 45.0277 35.333 45.0277H29.219C26.3605 45.0277 24.2214 45.0277 22.5308 44.8744C20.8412 44.7213 19.6064 44.4156 18.555 43.8086C17.1717 43.0099 16.023 41.8612 15.2243 40.4779C14.6173 39.4264 14.3116 38.1917 14.1585 36.5021C14.0052 34.8115 14.0052 32.6724 14.0052 29.8139C14.0052 26.9555 14.0052 24.8164 14.1585 23.1258C14.3116 21.4361 14.6173 20.2014 15.2243 19.15C16.023 17.7667 17.1717 16.6179 18.555 15.8193C19.6064 15.2122 20.8412 14.9066 22.5308 14.7534C24.2214 14.6002 26.3605 14.6001 29.219 14.6001L35.333 14.6001C38.1915 14.6001 40.3306 14.6002 42.0212 14.7534C43.7108 14.9066 44.9455 15.2122 45.9969 15.8193C47.3803 16.6179 48.529 17.7667 49.3277 19.15C49.9347 20.2014 50.2404 21.4361 50.3935 23.1258C50.5467 24.8164 50.5468 26.9555 50.5468 29.8139C50.5468 32.6724 50.5467 34.8115 50.3935 36.5021C50.2404 38.1917 49.9347 39.4264 49.3277 40.4779C48.7184 41.5332 47.9053 42.452 46.9398 43.183L46.9083 43.2069L46.9118 43.2462L47.328 47.8832C47.39 48.5741 46.6396 49.0417 46.0467 48.6817L39.9817 44.9998Z" stroke="url(#paint1_linear_1_4331)" stroke-width="0.142651"/>
</g>
<g filter="url(#filter1_b_1_4331)">
<rect x="41.7991" y="23.7148" width="3.11655" height="18.6993" rx="1.55827" transform="rotate(90 41.7991 23.7148)" fill="url(#paint2_linear_1_4331)" fill-opacity="0.9"/>
<rect x="41.6844" y="23.8295" width="2.88723" height="18.47" rx="1.44361" transform="rotate(90 41.6844 23.8295)" stroke="url(#paint3_linear_1_4331)" stroke-width="0.229323"/>
</g>
<g filter="url(#filter2_b_1_4331)">
<rect x="37.4321" y="32.8882" width="3.43985" height="14.3327" rx="1.71992" transform="rotate(90 37.4321 32.8882)" fill="url(#paint4_linear_1_4331)" fill-opacity="0.9"/>
<rect x="37.3175" y="33.0028" width="3.21052" height="14.1034" rx="1.60526" transform="rotate(90 37.3175 33.0028)" stroke="url(#paint5_linear_1_4331)" stroke-width="0.229323"/>
</g>
<defs>
<filter id="filter0_b_1_4331" x="10.7035" y="11.2984" width="43.1451" height="40.8097" filterUnits="userSpaceOnUse" color-interpolation-filters="sRGB">
<feFlood flood-opacity="0" result="BackgroundImageFix"/>
<feGaussianBlur in="BackgroundImageFix" stdDeviation="1.61519"/>
<feComposite in2="SourceAlpha" operator="in" result="effect1_backgroundBlur_1_4331"/>
<feBlend mode="normal" in="SourceGraphic" in2="effect1_backgroundBlur_1_4331" result="shape"/>
</filter>
<filter id="filter1_b_1_4331" x="16.8668" y="17.4817" width="31.1654" height="15.5827" filterUnits="userSpaceOnUse" color-interpolation-filters="sRGB">
<feFlood flood-opacity="0" result="BackgroundImageFix"/>
<feGaussianBlur in="BackgroundImageFix" stdDeviation="3.11655"/>
<feComposite in2="SourceAlpha" operator="in" result="effect1_backgroundBlur_1_4331"/>
<feBlend mode="normal" in="SourceGraphic" in2="effect1_backgroundBlur_1_4331" result="shape"/>
</filter>
<filter id="filter2_b_1_4331" x="16.8663" y="26.6551" width="26.799" height="15.906" filterUnits="userSpaceOnUse" color-interpolation-filters="sRGB">
<feFlood flood-opacity="0" result="BackgroundImageFix"/>
<feGaussianBlur in="BackgroundImageFix" stdDeviation="3.11655"/>
<feComposite in2="SourceAlpha" operator="in" result="effect1_backgroundBlur_1_4331"/>
<feBlend mode="normal" in="SourceGraphic" in2="effect1_backgroundBlur_1_4331" result="shape"/>
</filter>
<linearGradient id="paint0_linear_1_4331" x1="12.2878" y1="12.8761" x2="40.0272" y2="23.0574" gradientUnits="userSpaceOnUse">
<stop stop-color="#97C3FA"/>
<stop offset="1" stop-color="#5D8FF3"/>
</linearGradient>
<linearGradient id="paint1_linear_1_4331" x1="15.6537" y1="45.8237" x2="56.1922" y2="34.1511" gradientUnits="userSpaceOnUse">
<stop stop-color="white"/>
<stop offset="1" stop-color="white" stop-opacity="0"/>
</linearGradient>
<linearGradient id="paint2_linear_1_4331" x1="47.252" y1="21.5078" x2="43.2389" y2="39.2803" gradientUnits="userSpaceOnUse">
<stop stop-color="white" stop-opacity="0"/>
<stop offset="0.979167" stop-color="white"/>
</linearGradient>
<linearGradient id="paint3_linear_1_4331" x1="43.3573" y1="23.7148" x2="43.3573" y2="42.4141" gradientUnits="userSpaceOnUse">
<stop stop-color="white" stop-opacity="0"/>
<stop offset="1" stop-color="white"/>
</linearGradient>
<linearGradient id="paint4_linear_1_4331" x1="41.9901" y1="32.7345" x2="40.4356" y2="44.3746" gradientUnits="userSpaceOnUse">
<stop stop-color="white" stop-opacity="0"/>
<stop offset="0.979167" stop-color="white"/>
</linearGradient>
<linearGradient id="paint5_linear_1_4331" x1="39.1521" y1="32.8882" x2="39.1521" y2="47.2209" gradientUnits="userSpaceOnUse">
<stop stop-color="white" stop-opacity="0"/>
<stop offset="1" stop-color="white"/>
</linearGradient>
</defs>
</svg>
