<svg width="16" height="20" viewBox="0 0 16 20" fill="none" xmlns="http://www.w3.org/2000/svg">
<path d="M10.9334 0H4.26676C1.96926 0 0.100098 1.86917 0.100098 4.16667V15.8333C0.100098 18.1308 1.96926 20 4.26676 20H5.93343C6.39343 20 6.76676 19.6267 6.76676 19.1667V15H8.43343V19.1667C8.43343 19.6267 8.80676 20 9.26676 20H10.9334C13.2309 20 15.1001 18.1308 15.1001 15.8333V4.16667C15.1001 1.86917 13.2309 0 10.9334 0ZM13.4334 15.8333C13.4334 17.2117 12.3118 18.3333 10.9334 18.3333H10.1001V15H10.9334C11.3934 15 11.7668 14.6267 11.7668 14.1667C11.7668 13.7067 11.3934 13.3333 10.9334 13.3333H4.26676C3.80676 13.3333 3.43343 13.7067 3.43343 14.1667C3.43343 14.6267 3.80676 15 4.26676 15H5.1001V18.3333H4.26676C2.88843 18.3333 1.76676 17.2117 1.76676 15.8333V4.16667C1.76676 2.78833 2.88843 1.66667 4.26676 1.66667H10.9334C12.3118 1.66667 13.4334 2.78833 13.4334 4.16667V15.8333ZM6.76676 10.8333C6.76676 11.2933 6.39343 11.6667 5.93343 11.6667H5.1001C4.6401 11.6667 4.26676 11.2933 4.26676 10.8333C4.26676 10.3733 4.6401 10 5.1001 10H5.93343C6.39343 10 6.76676 10.3733 6.76676 10.8333ZM10.9334 10.8333C10.9334 11.2933 10.5601 11.6667 10.1001 11.6667H9.26676C8.80676 11.6667 8.43343 11.2933 8.43343 10.8333C8.43343 10.3733 8.80676 10 9.26676 10H10.1001C10.5601 10 10.9334 10.3733 10.9334 10.8333ZM6.76676 4.16667C6.76676 4.62667 6.39343 5 5.93343 5H5.1001C4.6401 5 4.26676 4.62667 4.26676 4.16667C4.26676 3.70667 4.6401 3.33333 5.1001 3.33333H5.93343C6.39343 3.33333 6.76676 3.70667 6.76676 4.16667ZM10.9334 4.16667C10.9334 4.62667 10.5601 5 10.1001 5H9.26676C8.80676 5 8.43343 4.62667 8.43343 4.16667C8.43343 3.70667 8.80676 3.33333 9.26676 3.33333H10.1001C10.5601 3.33333 10.9334 3.70667 10.9334 4.16667ZM6.76676 7.5C6.76676 7.96 6.39343 8.33333 5.93343 8.33333H5.1001C4.6401 8.33333 4.26676 7.96 4.26676 7.5C4.26676 7.04 4.6401 6.66667 5.1001 6.66667H5.93343C6.39343 6.66667 6.76676 7.04 6.76676 7.5ZM10.9334 7.5C10.9334 7.96 10.5601 8.33333 10.1001 8.33333H9.26676C8.80676 8.33333 8.43343 7.96 8.43343 7.5C8.43343 7.04 8.80676 6.66667 9.26676 6.66667H10.1001C10.5601 6.66667 10.9334 7.04 10.9334 7.5Z" fill="#B5BBC9"/>
</svg>
