<svg width="51" height="14" viewBox="0 0 51 14" fill="none" xmlns="http://www.w3.org/2000/svg">
<path fill-rule="evenodd" clip-rule="evenodd" d="M47.4664 0.284722H50.8811V0.287434H50.8939V13.2815H47.8748H47.7258V13.2755H47.4664V8.12684V5.34774V3.65392H40.8713V5.34774V8.12684V13.2755H40.7228H40.6031V13.2815H37.4361V0.287434H37.4566V0.284722H40.8713V0.287434H47.4664V0.284722ZM9.88883 0.284722H13.3058V3.35941V3.65338H10.0368H9.88883V0.284722ZM9.88828 8.45551V5.08632H13.3052V8.16155V8.45551H10.0373H9.88828ZM9.88828 9.92588H13.3052V13.0011V13.2945H10.0368H9.88828V9.92588ZM8.39869 8.45551H5.12971H4.98119V5.08632H8.39869V8.16155V8.45551ZM4.98064 9.92588H8.39925V13.0011V13.2945H5.12971H4.98064V9.92588ZM0.0835266 9.92588H3.50103V13.0011V13.2945H0.232596H0.0835266V9.92588ZM18.5049 0.28418H21.9174V3.65066H18.803V3.65012H18.5049V0.28418ZM17.3068 0.284722H17.6044V3.31331H17.6138V13.2766H14.3476H14.1991V3.65066H14.1935V0.284722H17.1577H17.3068ZM32.1206 0.296112H36.5273L31.2667 6.77905L35.9554 12.5542H35.9548L36.529 13.2609H32.1921H32.1206L28.2387 8.47938H26.2715V13.2609H22.8185V0.296112H26.2715L26.2709 5.07764H28.2393L32.1206 0.296112Z" fill="#81899A"/>
</svg>
