<svg width="20" height="20" viewBox="0 0 20 20" fill="none" xmlns="http://www.w3.org/2000/svg">
<g clip-path="url(#clip0_1_1676)">
<path d="M9.08958 18.3334C8.79331 18.3333 8.50133 18.2626 8.23776 18.1273C7.97419 17.992 7.74662 17.7959 7.57386 17.5552C7.4011 17.3145 7.28811 17.0362 7.24423 16.7432C7.20035 16.4502 7.22685 16.1509 7.32153 15.8702L8.66875 12.0834H5.94306L5.19306 13.2264C5.00374 13.5157 4.74526 13.7532 4.44103 13.9174C4.13679 14.0815 3.79641 14.1672 3.45069 14.1667C3.16513 14.1667 2.8838 14.0977 2.63058 13.9657C2.37735 13.8337 2.15971 13.6426 1.99613 13.4085C1.83254 13.1745 1.72785 12.9044 1.69092 12.6212C1.654 12.3381 1.68594 12.0502 1.78403 11.782L2.43056 10L1.77708 8.22226C1.67876 7.95454 1.64642 7.66707 1.6828 7.38419C1.71919 7.10132 1.82323 6.83138 1.98611 6.59726C2.17962 6.35003 2.4299 6.15312 2.71573 6.02323C3.00156 5.89334 3.3145 5.83431 3.628 5.85114C3.94151 5.86797 4.24633 5.96018 4.5166 6.11993C4.78688 6.27968 5.01464 6.50226 5.18056 6.76879L5.94097 7.91671H8.66875L7.32431 4.14101C7.22806 3.85888 7.20048 3.55787 7.24383 3.26294C7.28719 2.96801 7.40024 2.68768 7.57361 2.44518C7.78013 2.18289 8.04896 1.9764 8.35564 1.84451C8.66232 1.71262 8.99712 1.65951 9.32956 1.69002C9.662 1.72052 9.98153 1.83367 10.2591 2.01917C10.5366 2.20467 10.7634 2.45663 10.9188 2.75212L13.875 7.91671H16.1757C16.6779 7.9104 17.1664 8.08081 17.5558 8.39817C17.9451 8.71552 18.2105 9.15962 18.3056 9.65282C18.3561 9.95167 18.3408 10.2579 18.2607 10.5503C18.1807 10.8426 18.0378 11.1139 17.8421 11.3453C17.6464 11.5768 17.4025 11.7627 17.1275 11.8902C16.8526 12.0176 16.5531 12.0836 16.25 12.0834H13.875L10.9118 17.2598C10.7322 17.5856 10.4683 17.8572 10.1477 18.0461C9.82711 18.2349 9.46166 18.3342 9.08958 18.3334ZM5.56806 10.6945H9.65278C9.76364 10.6954 9.87268 10.7228 9.97089 10.7742C10.0691 10.8256 10.1537 10.8997 10.2176 10.9903C10.2815 11.0809 10.3229 11.1854 10.3385 11.2951C10.354 11.4049 10.3432 11.5168 10.3069 11.6216L8.63333 16.325C8.61097 16.3956 8.60561 16.4704 8.61768 16.5434C8.62975 16.6165 8.65891 16.6856 8.70278 16.7452C8.77282 16.8146 8.85829 16.8664 8.9522 16.8965C9.04611 16.9265 9.1458 16.9339 9.24312 16.9181C9.34044 16.9022 9.43263 16.8636 9.51216 16.8053C9.59168 16.747 9.65629 16.6707 9.7007 16.5827L12.8694 11.0417C12.9305 10.9359 13.0184 10.8481 13.1242 10.7872C13.2301 10.7262 13.3501 10.6942 13.4722 10.6945H16.25C16.3515 10.6945 16.4518 10.6723 16.5438 10.6294C16.6358 10.5865 16.7173 10.524 16.7825 10.4462C16.8477 10.3684 16.8951 10.2772 16.9212 10.1792C16.9474 10.0811 16.9518 9.97846 16.934 9.87851C16.8929 9.71032 16.795 9.56146 16.6568 9.45709C16.5187 9.35271 16.3487 9.2992 16.1757 9.3056H13.4722C13.3501 9.30584 13.2301 9.27386 13.1242 9.2129C13.0184 9.15194 12.9305 9.06415 12.8694 8.95837L9.70625 3.4299C9.66407 3.33898 9.6005 3.25962 9.52098 3.19862C9.44145 3.13761 9.34834 3.09676 9.2496 3.07956C9.15085 3.06236 9.04941 3.06933 8.95395 3.09986C8.85848 3.1304 8.77183 3.18359 8.70139 3.2549C8.65697 3.3164 8.62792 3.38765 8.61669 3.46268C8.60545 3.53771 8.61235 3.61434 8.63681 3.68615L10.3035 8.37851C10.3396 8.483 10.3505 8.59459 10.3351 8.70409C10.3198 8.8136 10.2786 8.91789 10.2151 9.0084C10.1516 9.0989 10.0675 9.17304 9.96973 9.22471C9.87197 9.27637 9.76334 9.3041 9.65278 9.3056H5.56806C5.45333 9.30561 5.34039 9.27721 5.23932 9.22292C5.13826 9.16863 5.05222 9.09015 4.98889 8.99449L4.02153 7.53615C3.86319 7.24379 3.30347 7.09379 3.12569 7.39032C3.08938 7.44098 3.06625 7.49987 3.05837 7.5617C3.05049 7.62352 3.05811 7.68634 3.08056 7.74449L3.825 9.76254C3.88185 9.9172 3.88185 10.087 3.825 10.2417L3.08472 12.2625C3.06408 12.3207 3.05768 12.3829 3.06604 12.4441C3.0744 12.5052 3.09729 12.5634 3.13279 12.6139C3.16829 12.6643 3.21537 12.7056 3.27007 12.7341C3.32478 12.7626 3.38553 12.7776 3.44722 12.7778C3.56255 12.7779 3.67608 12.7492 3.77756 12.6944C3.87904 12.6396 3.96527 12.5604 4.02847 12.4639L4.98403 11.0056C5.04781 10.9092 5.13462 10.8303 5.2366 10.776C5.33859 10.7217 5.45251 10.6937 5.56806 10.6945Z" fill="#6D7586"/>
</g>
<defs>
<clipPath id="clip0_1_1676">
<rect width="16.6667" height="16.6667" fill="white" transform="translate(1.66666 1.66675)"/>
</clipPath>
</defs>
</svg>
