<svg width="20" height="20" viewBox="0 0 20 20" fill="none" xmlns="http://www.w3.org/2000/svg">
<path fill-rule="evenodd" clip-rule="evenodd" d="M17.4929 10.3925C17.287 10.3818 17.1296 10.2062 17.1296 10C17.1296 9.79378 17.287 9.61816 17.4929 9.60754L18.282 9.56685C18.534 9.55385 18.75 9.74767 18.75 10C18.75 10.2523 18.534 10.4461 18.282 10.4332L17.4929 10.3925ZM16.1752 6.43417C16.2785 6.61263 16.5028 6.68651 16.6864 6.59275L17.3889 6.23409C17.6143 6.119 17.7045 5.84164 17.5777 5.62258C17.4509 5.40352 17.1663 5.34465 16.9542 5.48269L16.2931 5.9129C16.1202 6.02536 16.072 6.25571 16.1752 6.43417ZM13.5658 3.82477C13.7443 3.92805 13.9746 3.87976 14.0871 3.70695L14.5173 3.04582C14.6554 2.83369 14.5965 2.54907 14.3774 2.42231C14.1584 2.29554 13.881 2.38568 13.7659 2.6111L13.4072 3.31361C13.3135 3.49724 13.3874 3.7215 13.5658 3.82477ZM10 2.87037C10.2062 2.87037 10.3818 2.71302 10.3925 2.50707L10.4332 1.71803C10.4461 1.46604 10.2523 1.25 10 1.25C9.74767 1.25 9.55385 1.46603 9.56685 1.71803L9.60754 2.50707C9.61816 2.71302 9.79378 2.87037 10 2.87037ZM6.43417 3.82477C6.61263 3.7215 6.68651 3.49724 6.59275 3.31361L6.23409 2.6111C6.119 2.38568 5.84164 2.29554 5.62258 2.42231C5.40352 2.54907 5.34465 2.83369 5.48269 3.04582L5.9129 3.70695C6.02536 3.87976 6.25571 3.92805 6.43417 3.82477ZM3.82477 6.43417C3.92805 6.25571 3.87976 6.02536 3.70695 5.9129L3.04582 5.48269C2.83369 5.34465 2.54907 5.40352 2.42231 5.62258C2.29554 5.84164 2.38568 6.119 2.6111 6.23409L3.31361 6.59275C3.49724 6.68651 3.7215 6.61263 3.82477 6.43417ZM2.50707 9.60754C2.71302 9.61816 2.87037 9.79378 2.87037 10C2.87037 10.2062 2.71302 10.3818 2.50707 10.3925L1.71803 10.4332C1.46603 10.4461 1.25 10.2523 1.25 10C1.25 9.74767 1.46604 9.55385 1.71803 9.56685L2.50707 9.60754ZM3.82477 13.5658C3.7215 13.3874 3.49725 13.3135 3.31361 13.4072L2.6111 13.7659C2.38568 13.881 2.29554 14.1584 2.42231 14.3774C2.54907 14.5965 2.83369 14.6554 3.04582 14.5173L3.70695 14.0871C3.87976 13.9746 3.92805 13.7443 3.82477 13.5658ZM6.43417 16.1752C6.25571 16.072 6.02536 16.1202 5.9129 16.2931L5.48269 16.9542C5.34465 17.1663 5.40352 17.4509 5.62258 17.5777C5.84164 17.7045 6.119 17.6143 6.23409 17.3889L6.59275 16.6864C6.68651 16.5028 6.61263 16.2785 6.43417 16.1752ZM10 17.1296C9.79378 17.1296 9.61816 17.287 9.60754 17.4929L9.56685 18.282C9.55385 18.534 9.74767 18.75 10 18.75C10.2523 18.75 10.4461 18.534 10.4332 18.282L10.3925 17.4929C10.3818 17.287 10.2062 17.1296 10 17.1296ZM13.5658 16.1752C13.3874 16.2785 13.3135 16.5028 13.4072 16.6864L13.7659 17.3889C13.881 17.6143 14.1584 17.7045 14.3774 17.5777C14.5965 17.4509 14.6554 17.1663 14.5173 16.9542L14.0871 16.2931C13.9746 16.1202 13.7443 16.072 13.5658 16.1752ZM16.1752 13.5658C16.072 13.7443 16.1202 13.9746 16.2931 14.0871L16.9542 14.5173C17.1663 14.6554 17.4509 14.5965 17.5777 14.3774C17.7045 14.1584 17.6143 13.881 17.3889 13.7659L16.6864 13.4072C16.5028 13.3135 16.2785 13.3874 16.1752 13.5658Z" fill="#FFD400"/>
<path d="M15.9956 10.0003C15.9956 13.3114 13.3114 15.9956 10.0003 15.9956C6.6891 15.9956 4.00488 13.3114 4.00488 10.0003C4.00488 6.6891 6.6891 4.00488 10.0003 4.00488C13.3114 4.00488 15.9956 6.6891 15.9956 10.0003Z" fill="#FFD400"/>
</svg>
