<svg width="18" height="18" viewBox="0 0 18 18" fill="none" xmlns="http://www.w3.org/2000/svg">
<path d="M9.0008 17.3334C4.39841 17.3334 0.66745 13.6024 0.66745 9.00008C0.66745 4.39771 4.39841 0.666748 9.0008 0.666748C13.6031 0.666748 17.3341 4.39771 17.3341 9.00008C17.3341 13.6024 13.6031 17.3334 9.0008 17.3334ZM6.40924 9.97575L6.41978 9.96908C6.90289 11.564 7.14444 12.3615 7.14444 12.3615C7.238 12.6202 7.36663 12.6664 7.52272 12.6453C7.67872 12.6242 7.76155 12.5397 7.86338 12.4415C7.86338 12.4415 8.19363 12.1227 8.85413 11.4853L10.9799 13.0582C11.3672 13.2722 11.6469 13.1618 11.7431 12.6982L13.1245 6.18042C13.277 5.57376 13.0096 5.33045 12.5391 5.52303L4.42828 8.656C3.87493 8.87841 3.87761 9.188 4.32753 9.326L6.40924 9.97575Z" fill="#26A5E4"/>
</svg>
