<svg width="21" height="20" viewBox="0 0 21 20" fill="none" xmlns="http://www.w3.org/2000/svg">
<g clip-path="url(#clip0_48_1678)">
<path d="M16.8583 12.4999H1.03328C0.812271 12.4999 0.600309 12.5877 0.444029 12.744C0.287749 12.9003 0.199951 13.1122 0.199951 13.3332C0.199951 13.5543 0.287749 13.7662 0.444029 13.9225C0.600309 14.0788 0.812271 14.1666 1.03328 14.1666H16.8583C17.3816 14.1675 17.8978 14.0452 18.3651 13.8095C18.8324 13.5739 19.2377 13.2315 19.548 12.8101C19.8584 12.3887 20.0652 11.9002 20.1517 11.384C20.2381 10.8679 20.2019 10.3386 20.0458 9.83907C19.3089 7.4648 17.8297 5.38958 15.8256 3.9185C13.8216 2.44743 11.3984 1.6581 8.91245 1.66657H1.03328C0.812271 1.66657 0.600309 1.75437 0.444029 1.91065C0.287749 2.06693 0.199951 2.27889 0.199951 2.4999C0.199951 2.72092 0.287749 2.93288 0.444029 3.08916C0.600309 3.24544 0.812271 3.33324 1.03328 3.33324H3.53328V5.83324H1.03328C0.812271 5.83324 0.600309 5.92104 0.444029 6.07732C0.287749 6.2336 0.199951 6.44556 0.199951 6.66657C0.199951 6.88759 0.287749 7.09955 0.444029 7.25583C0.600309 7.41211 0.812271 7.49991 1.03328 7.49991H17.0441C17.662 8.36529 18.1385 9.32334 18.4558 10.3382C18.5344 10.5867 18.5528 10.8503 18.5093 11.1072C18.4658 11.3641 18.3618 11.607 18.2058 11.8157C18.0513 12.0283 17.8487 12.2011 17.6144 12.3201C17.3801 12.439 17.121 12.5006 16.8583 12.4999ZM7.69995 5.83324H5.19995V3.33324H7.69995V5.83324ZM9.36662 5.83324V3.35157C11.6477 3.44689 13.8269 4.32301 15.5391 5.83324H9.36662Z" fill="#B5BBC9"/>
<path d="M19.3666 16.6667H1.03328C0.812271 16.6667 0.600309 16.7545 0.444029 16.9108C0.287749 17.0671 0.199951 17.2791 0.199951 17.5001C0.199951 17.7211 0.287749 17.9331 0.444029 18.0893C0.600309 18.2456 0.812271 18.3334 1.03328 18.3334H19.3666C19.5876 18.3334 19.7996 18.2456 19.9559 18.0893C20.1122 17.9331 20.2 17.7211 20.2 17.5001C20.2 17.2791 20.1122 17.0671 19.9559 16.9108C19.7996 16.7545 19.5876 16.6667 19.3666 16.6667Z" fill="#B5BBC9"/>
</g>
<defs>
<clipPath id="clip0_48_1678">
<rect width="20" height="20" fill="white" transform="translate(0.199951)"/>
</clipPath>
</defs>
</svg>
